<svg viewBox="0 0 24 24" fill="none" xmlns="http://www.w3.org/2000/svg">
<path d="M12 3C10.379 3 8.87903 3.41129 7.5 4.23387C6.12097 5.03226 5.02016 6.12097 4.19758 7.5C3.39919 8.87903 3 10.379 3 12C3 13.621 3.39919 15.121 4.19758 16.5C5.02016 17.879 6.12097 18.9677 7.5 19.7661C8.87903 20.5887 10.379 21 12 21C13.621 21 15.121 20.5887 16.5 19.7661C17.879 18.9677 18.9677 17.879 19.7661 16.5C20.5887 15.121 21 13.621 21 12C21 10.379 20.5887 8.87903 19.7661 7.5C18.9677 6.12097 17.879 5.03226 16.5 4.23387C15.121 3.41129 13.621 3 12 3ZM12 6.99194C12.4113 6.99194 12.7621 7.14919 13.0524 7.46371C13.3669 7.75403 13.5242 8.10484 13.5242 8.51613C13.5242 8.92742 13.3669 9.29032 13.0524 9.60484C12.7621 9.89516 12.4113 10.0403 12 10.0403C11.5887 10.0403 11.2258 9.89516 10.9113 9.60484C10.621 9.29032 10.4758 8.92742 10.4758 8.51613C10.4758 8.10484 10.621 7.75403 10.9113 7.46371C11.2258 7.14919 11.5887 6.99194 12 6.99194ZM14.0323 16.2097C14.0323 16.3306 13.9839 16.4395 13.8871 16.5363C13.8145 16.6089 13.7177 16.6452 13.5968 16.6452H10.4032C10.2823 16.6452 10.1734 16.6089 10.0766 16.5363C10.004 16.4395 9.96774 16.3306 9.96774 16.2097V15.3387C9.96774 15.2177 10.004 15.121 10.0766 15.0484C10.1734 14.9516 10.2823 14.9032 10.4032 14.9032H10.8387V12.5806H10.4032C10.2823 12.5806 10.1734 12.5444 10.0766 12.4718C10.004 12.375 9.96774 12.2661 9.96774 12.1452V11.2742C9.96774 11.1532 10.004 11.0565 10.0766 10.9839C10.1734 10.8871 10.2823 10.8387 10.4032 10.8387H12.7258C12.8468 10.8387 12.9435 10.8871 13.0161 10.9839C13.1129 11.0565 13.1613 11.1532 13.1613 11.2742V14.9032H13.5968C13.7177 14.9032 13.8145 14.9516 13.8871 15.0484C13.9839 15.121 14.0323 15.2177 14.0323 15.3387V16.2097Z" fill="currentColor"/>
</svg>
