<svg viewBox="0 0 24 24" fill="none" xmlns="http://www.w3.org/2000/svg">
<path d="M12 6.86607C11.0774 6.86607 10.2143 7.10417 9.41071 7.58036C8.6369 8.02679 8.0119 8.65179 7.53571 9.45536C7.08929 10.2292 6.86607 11.0774 6.86607 12C6.86607 12.9226 7.08929 13.7857 7.53571 14.5893C8.0119 15.3631 8.6369 15.9881 9.41071 16.4643C10.2143 16.9107 11.0774 17.1339 12 17.1339C12.9226 17.1339 13.7708 16.9107 14.5446 16.4643C15.3482 15.9881 15.9732 15.3631 16.4196 14.5893C16.8958 13.7857 17.1339 12.9226 17.1339 12C17.1339 11.0774 16.8958 10.2292 16.4196 9.45536C15.9732 8.65179 15.3482 8.02679 14.5446 7.58036C13.7708 7.10417 12.9226 6.86607 12 6.86607ZM12 15.3482C11.0774 15.3482 10.2887 15.0208 9.63393 14.3661C8.97917 13.7113 8.65179 12.9226 8.65179 12C8.65179 11.0774 8.97917 10.2887 9.63393 9.63393C10.2887 8.97917 11.0774 8.65179 12 8.65179C12.9226 8.65179 13.7113 8.97917 14.3661 9.63393C15.0208 10.2887 15.3482 11.0774 15.3482 12C15.3482 12.9226 15.0208 13.7113 14.3661 14.3661C13.7113 15.0208 12.9226 15.3482 12 15.3482ZM18.5625 6.64286C18.5327 6.97024 18.3988 7.25298 18.1607 7.49107C17.9524 7.72917 17.6845 7.84821 17.3571 7.84821C17.0298 7.84821 16.747 7.72917 16.5089 7.49107C16.2708 7.25298 16.1518 6.97024 16.1518 6.64286C16.1518 6.31548 16.2708 6.03274 16.5089 5.79464C16.747 5.55655 17.0298 5.4375 17.3571 5.4375C17.6845 5.4375 17.9673 5.55655 18.2054 5.79464C18.4435 6.03274 18.5625 6.31548 18.5625 6.64286ZM21.9554 7.84821C21.8958 6.98512 21.7619 6.24107 21.5536 5.61607C21.2857 4.87202 20.869 4.23214 20.3036 3.69643C19.7679 3.13095 19.128 2.71429 18.3839 2.44643C17.7589 2.2381 17.0149 2.11905 16.1518 2.08929C15.3185 2.02976 13.9345 2 12 2C10.0655 2 8.66667 2.02976 7.80357 2.08929C6.97024 2.11905 6.24107 2.2381 5.61607 2.44643C4.87202 2.71429 4.21726 3.13095 3.65179 3.69643C3.11607 4.23214 2.71429 4.87202 2.44643 5.61607C2.2381 6.24107 2.10417 6.98512 2.04464 7.84821C2.01488 8.68155 2 10.0655 2 12C2 13.9345 2.01488 15.3333 2.04464 16.1964C2.10417 17.0298 2.2381 17.7589 2.44643 18.3839C2.71429 19.128 3.11607 19.7827 3.65179 20.3482C4.21726 20.8839 4.87202 21.2708 5.61607 21.5089C6.24107 21.747 6.97024 21.881 7.80357 21.9107C8.66667 21.9702 10.0655 22 12 22C13.9345 22 15.3185 21.9702 16.1518 21.9107C17.0149 21.881 17.7589 21.7619 18.3839 21.5536C19.128 21.2857 19.7679 20.8839 20.3036 20.3482C20.869 19.7827 21.2857 19.128 21.5536 18.3839C21.7619 17.7589 21.881 17.0298 21.9107 16.1964C21.9702 15.3333 22 13.9345 22 12C22 10.0655 21.9851 8.68155 21.9554 7.84821ZM19.8125 17.8929C19.4554 18.7857 18.8155 19.4256 17.8929 19.8125C17.4167 19.9911 16.6131 20.1101 15.4821 20.1696C14.8571 20.1994 13.9345 20.2143 12.7143 20.2143H11.2857C10.0952 20.2143 9.17262 20.1994 8.51786 20.1696C7.41667 20.1101 6.6131 19.9911 6.10714 19.8125C5.21429 19.4554 4.5744 18.8155 4.1875 17.8929C4.00893 17.3869 3.88988 16.5833 3.83036 15.4821C3.8006 14.8274 3.78571 13.9048 3.78571 12.7143V11.2857C3.78571 10.0952 3.8006 9.17262 3.83036 8.51786C3.88988 7.3869 4.00893 6.58333 4.1875 6.10714C4.54464 5.18452 5.18452 4.54464 6.10714 4.1875C6.6131 4.00893 7.41667 3.88988 8.51786 3.83036C9.17262 3.8006 10.0952 3.78571 11.2857 3.78571H12.7143C13.9048 3.78571 14.8274 3.8006 15.4821 3.83036C16.6131 3.88988 17.4167 4.00893 17.8929 4.1875C18.8155 4.54464 19.4554 5.18452 19.8125 6.10714C19.9911 6.58333 20.1101 7.3869 20.1696 8.51786C20.1994 9.14286 20.2143 10.0655 20.2143 11.2857V12.7143C20.2143 13.9048 20.1994 14.8274 20.1696 15.4821C20.1101 16.5833 19.9911 17.3869 19.8125 17.8929Z" fill="currentColor"/>
</svg>
