<svg width="150" height="31" fill="none" xmlns="http://www.w3.org/2000/svg"><path fill-rule="evenodd" clip-rule="evenodd" d="m20.611 6.552-.003.003a4.24 4.24 0 0 1-.529.73l-.077.092-1.855 2.124v.003L8.146 20.977a.803.803 0 0 1-1.365-.788l5.895-17.184c.094-.285.218-.562.365-.822a4.38 4.38 0 0 1 5.97-1.6 4.356 4.356 0 0 1 2.038 2.652 4.342 4.342 0 0 1-.438 3.317" fill="#333"/><path fill-rule="evenodd" clip-rule="evenodd" d="M33.508 27.077a4.418 4.418 0 0 1-.753 1.531c-.346.449-.778.831-1.285 1.122a4.37 4.37 0 0 1-6.337-2.423l-.04-.113-5.852-17.07a.802.802 0 0 1 1.363-.787l11.833 13.576.105.122a4.336 4.336 0 0 1 .966 4.043" fill="#999"/><path fill-rule="evenodd" clip-rule="evenodd" d="M1.278 29.038a4.418 4.418 0 0 1-.949-1.417A4.365 4.365 0 0 1 0 25.947a4.37 4.37 0 0 1 5.267-4.277l.118.023 2.766.542 14.943 2.925a.801.801 0 0 1 0 1.574L5.42 30.192l-.158.03a4.336 4.336 0 0 1-3.984-1.185" fill="#666"/><path fill-rule="evenodd" clip-rule="evenodd" d="M48.587 15.976c.774.79 1.161 1.796 1.161 3.016v.989c0 1.335-.387 2.452-1.161 3.35-.776.898-2.028 1.347-3.759 1.347h-6.403a.495.495 0 0 1-.346-.136.434.434 0 0 1-.148-.334v-2.027c0-.132.05-.243.148-.334a.496.496 0 0 1 .346-.136h5.118c1.071 0 1.83-.123 2.275-.37.445-.248.667-.726.667-1.434v-.816c0-.528-.182-.882-.544-1.063-.363-.182-.989-.272-1.879-.272h-1.063c-1.698 0-2.942-.445-3.733-1.335-.791-.89-1.187-2.011-1.187-3.363v-.494c0-1.335.387-2.452 1.162-3.35.775-.898 2.027-1.348 3.758-1.348h5.884c.132 0 .247.046.346.136.1.091.149.202.149.334v2.027c0 .133-.05.244-.149.334a.496.496 0 0 1-.346.136h-4.846c-.972 0-1.664.124-2.076.371-.413.247-.618.726-.618 1.434v.321c0 .71.18 1.191.543 1.447.363.255.99.383 1.88.383h1.062c1.731 0 2.983.395 3.758 1.187M58.389 22.058c.338-.132.573-.396.705-.791.18-.61.272-1.534.272-2.77s-.091-2.159-.272-2.769c-.132-.395-.367-.659-.705-.79-.338-.133-.803-.198-1.397-.198-.593 0-1.06.066-1.397.197-.338.132-.573.396-.704.791-.182.61-.272 1.533-.272 2.77 0 1.235.09 2.159.272 2.768.131.396.366.66.704.792.338.132.804.197 1.397.197.594 0 1.059-.065 1.397-.197Zm-4.809 2.274c-.807-.428-1.38-1.104-1.718-2.027-.338-.923-.507-2.192-.507-3.808 0-1.615.169-2.888.507-3.82.338-.93.915-1.606 1.73-2.027.816-.42 1.95-.63 3.4-.63 1.467 0 2.604.214 3.412.643.807.428 1.38 1.104 1.718 2.027.338.923.507 2.192.507 3.807 0 1.616-.17 2.89-.507 3.82-.338.931-.915 1.607-1.73 2.027-.816.42-1.95.631-3.4.631-1.467 0-2.604-.215-3.412-.643ZM67.808 20.623c.124.594.35.973.68 1.138.28.165.725.247 1.335.247h3.239c.132 0 .243.05.334.149.09.098.136.214.136.346v1.705c0 .133-.05.244-.149.334a.496.496 0 0 1-.346.136h-3.61c-2.307 0-3.815-.799-4.524-2.398-.363-.972-.544-2.241-.544-3.807 0-1.533.181-2.786.544-3.758.709-1.599 2.217-2.399 4.525-2.399h3.61c.13 0 .246.046.345.137.1.09.149.202.149.333v1.706a.497.497 0 0 1-.136.346.436.436 0 0 1-.334.149h-3.239c-.61 0-1.055.082-1.335.247-.577.28-.865 1.36-.865 3.239 0 .84.061 1.557.185 2.15M75.398 24.542a.452.452 0 0 1-.136-.334V12.811c0-.132.045-.247.136-.346a.434.434 0 0 1 .334-.149h2.25c.132 0 .247.05.346.149a.475.475 0 0 1 .148.346v11.397c0 .133-.05.244-.148.334a.496.496 0 0 1-.346.136h-2.25a.452.452 0 0 1-.334-.136Zm.074-14.166c-.305-.305-.457-.77-.457-1.397 0-.626.152-1.092.457-1.397.305-.305.77-.457 1.397-.457.626 0 1.092.152 1.397.457.305.305.457.77.457 1.397 0 .626-.152 1.092-.457 1.397-.305.305-.77.457-1.397.457-.626 0-1.092-.152-1.397-.457ZM84.2 21.996c.354.206.918.309 1.693.309s1.385-.083 1.83-.247v-2.399a7.923 7.923 0 0 0-2.151-.272c-.693 0-1.183.12-1.471.359-.289.239-.433.58-.433 1.026 0 .61.177 1.018.531 1.224Zm5.686-8.468c.7.808 1.05 1.821 1.05 3.04v7.467c-1.384.627-3.131.94-5.24.94-1.913 0-3.264-.35-4.055-1.05-.791-.701-1.187-1.752-1.187-3.153 0-1.236.416-2.18 1.249-2.83.831-.652 2.03-.977 3.597-.977.94 0 1.746.09 2.422.271v-.47c0-.51-.057-.89-.172-1.137-.116-.247-.322-.42-.619-.519-.296-.099-.766-.14-1.409-.123l-3.585.024a.434.434 0 0 1-.333-.148.494.494 0 0 1-.136-.346v-1.73c0-.132.049-.244.148-.334a.497.497 0 0 1 .346-.136h4.5c1.582 0 2.723.404 3.424 1.211ZM93.421 23.764c-.503-.61-.754-1.5-.754-2.67V7.865c0-.131.045-.247.136-.346a.434.434 0 0 1 .334-.148h2.25c.132 0 .247.05.346.148a.475.475 0 0 1 .148.346v13.03c0 .346.078.618.235.815.156.198.391.297.705.297h.593c.28 0 .465.07.556.21.09.14.136.343.136.606v1.014c0 .264-.053.47-.16.618-.108.148-.318.222-.631.222h-1.656c-.99 0-1.735-.305-2.238-.915M106.735 21.13c.411-.584.618-1.503.618-2.756 0-1.302-.219-2.233-.655-2.794-.437-.56-1.208-.84-2.312-.84-.742 0-1.352.082-1.83.247v7.021h2.275c.857 0 1.492-.292 1.904-.878Zm3.832-2.756c0 2.06-.491 3.626-1.471 4.697-.981 1.072-2.271 1.607-3.869 1.607h-2.671v3.98a.435.435 0 0 1-.148.334.497.497 0 0 1-.346.136h-2.25a.454.454 0 0 1-.334-.136.455.455 0 0 1-.135-.333V13.207c1.367-.791 3.115-1.187 5.241-1.187 3.988 0 5.983 2.118 5.983 6.354ZM118.96 22.058c.338-.132.573-.396.705-.791.181-.61.272-1.534.272-2.77s-.091-2.159-.272-2.769c-.132-.395-.367-.659-.705-.79-.338-.133-.803-.198-1.397-.198-.593 0-1.059.066-1.397.197-.338.132-.573.396-.704.791-.182.61-.272 1.533-.272 2.77 0 1.235.09 2.159.272 2.768.131.396.366.66.704.792.338.132.804.197 1.397.197.594 0 1.059-.065 1.397-.197Zm-4.809 2.274c-.807-.428-1.38-1.104-1.718-2.027-.338-.923-.507-2.192-.507-3.808 0-1.615.169-2.888.507-3.82.338-.93.915-1.606 1.731-2.027.816-.42 1.949-.63 3.399-.63 1.467 0 2.604.214 3.412.643.807.428 1.38 1.104 1.718 2.027.338.923.507 2.192.507 3.807 0 1.616-.169 2.89-.507 3.82-.338.931-.914 1.607-1.73 2.027-.816.42-1.95.631-3.4.631-1.467 0-2.604-.215-3.412-.643ZM124.943 24.542a.451.451 0 0 1-.136-.334V12.811c0-.132.045-.247.136-.346a.434.434 0 0 1 .334-.149h2.25c.131 0 .247.05.346.149a.474.474 0 0 1 .148.346v11.397a.434.434 0 0 1-.148.334.497.497 0 0 1-.346.136h-2.25a.452.452 0 0 1-.334-.136Zm.074-14.166c-.305-.305-.457-.77-.457-1.397 0-.626.152-1.092.457-1.397.305-.305.771-.457 1.397-.457s1.092.152 1.397.457c.305.305.457.77.457 1.397 0 .626-.152 1.092-.457 1.397-.305.305-.771.457-1.397.457s-1.092-.152-1.397-.457ZM140.976 17.138v7.07a.434.434 0 0 1-.148.334.497.497 0 0 1-.346.136h-2.25a.454.454 0 0 1-.334-.136.452.452 0 0 1-.136-.334v-7.02c0-.858-.185-1.48-.556-1.868-.371-.387-1.01-.58-1.917-.58-.741 0-1.351.107-1.829.32v9.149a.434.434 0 0 1-.148.333.497.497 0 0 1-.346.136h-2.25a.452.452 0 0 1-.334-.136.452.452 0 0 1-.136-.334V13.455c1.302-.956 2.967-1.434 4.994-1.434 3.824 0 5.736 1.706 5.736 5.118M147.181 14.987v5.983c0 .297.079.544.235.741.157.198.392.297.705.297h1.187c.461 0 .692.313.692.94v.89c0 .263-.054.47-.161.618-.107.148-.317.222-.63.222h-2.25c-1.994 0-2.992-1.195-2.992-3.585v-6.106h-1.755a.495.495 0 0 1-.346-.136.434.434 0 0 1-.148-.334V12.81c0-.132.049-.247.148-.346a.474.474 0 0 1 .346-.148h1.755v-2.72c0-.132.046-.247.136-.346a.436.436 0 0 1 .334-.148h2.25c.132 0 .247.049.346.148a.473.473 0 0 1 .148.346v2.72h2.324c.132 0 .248.045.347.136.098.09.148.202.148.333v1.706c0 .132-.05.248-.148.346a.476.476 0 0 1-.347.149h-2.324Z" fill="#FFFFFE"/></svg>