<svg viewBox="0 0 24 24" fill="none" xmlns="http://www.w3.org/2000/svg">
<path d="M18.9766 5.11719L8.70312 15.4297L4.91406 11.6406C4.83594 11.5365 4.73177 11.4844 4.60156 11.4844C4.47135 11.4844 4.35417 11.5365 4.25 11.6406L3.15625 12.7344C3.05208 12.8385 3 12.9557 3 13.0859C3 13.2161 3.05208 13.3203 3.15625 13.3984L8.35156 18.6328C8.45573 18.7109 8.57292 18.75 8.70312 18.75C8.83333 18.75 8.9375 18.7109 9.01562 18.6328L20.7344 6.91406C20.8385 6.8099 20.8906 6.69271 20.8906 6.5625C20.8906 6.43229 20.8385 6.32812 20.7344 6.25L19.6406 5.11719C19.5365 5.03906 19.4193 5 19.2891 5C19.1589 5 19.0547 5.03906 18.9766 5.11719Z" fill="currentColor"/>
</svg>
