<svg width="24" height="24" viewBox="0 0 24 24" fill="none" xmlns="http://www.w3.org/2000/svg">
<path d="M18.4123 6.27729C18.2799 6.20752 18.151 6.13104 18.0261 6.04813C17.663 5.80333 17.33 5.51489 17.0344 5.18901C16.2948 4.32613 16.0186 3.45076 15.9169 2.83787H15.921C15.836 2.32915 15.8711 2 15.8764 2H12.5078V15.2818C12.5078 15.4602 12.5078 15.6364 12.5005 15.8106C12.5005 15.8322 12.4984 15.8522 12.4972 15.8756C12.4972 15.8851 12.4972 15.8951 12.4951 15.9051V15.9126C12.4596 16.3892 12.3098 16.8495 12.0589 17.2532C11.8079 17.6568 11.4635 17.9914 11.056 18.2275C10.6313 18.4739 10.1509 18.6032 9.66222 18.6025C8.09274 18.6025 6.82072 17.2976 6.82072 15.686C6.82072 14.0744 8.09274 12.7695 9.66222 12.7695C9.95932 12.7692 10.2546 12.8169 10.5371 12.9107L10.5411 9.41338C9.68362 9.30043 8.81244 9.36992 7.98256 9.61747C7.15269 9.86502 6.38214 10.2852 5.71951 10.8516C5.1389 11.366 4.65077 11.9798 4.27711 12.6653C4.13491 12.9153 3.5984 13.9198 3.53343 15.5502C3.49257 16.4755 3.76511 17.4342 3.89505 17.8305V17.8388C3.97677 18.0721 4.29345 18.8683 4.80953 19.5395C5.22568 20.078 5.71734 20.5509 6.26869 20.9432V20.9349L6.27686 20.9432C7.90764 22.0732 9.71575 21.999 9.71575 21.999C10.0287 21.9861 11.0773 21.999 12.268 21.4236C13.5886 20.7857 14.3404 19.8354 14.3404 19.8354C14.8208 19.2675 15.2027 18.6204 15.4698 17.9217C15.7747 17.1047 15.8764 16.1247 15.8764 15.7331V8.68675C15.9173 8.71175 16.4616 9.07881 16.4616 9.07881C16.4616 9.07881 17.2457 9.59129 18.4691 9.92502C19.3468 10.1625 20.5293 10.2125 20.5293 10.2125V6.80268C20.115 6.84851 19.2736 6.71518 18.4123 6.27729Z" fill="currentColor"/>
</svg>
