<svg viewBox="0 0 24 24" fill="none" xmlns="http://www.w3.org/2000/svg">
<path fill-rule="evenodd" clip-rule="evenodd" d="M12 5C9.74662 5 7.91676 6.82992 7.91676 9.08333C7.91676 11.3368 9.74662 13.1667 12 13.1667C14.2533 13.1667 16.0832 11.3368 16.0832 9.08333C16.0832 6.82992 14.2533 5 12 5ZM12 6.16667C13.6099 6.16667 14.9165 7.47333 14.9165 9.08333C14.9165 10.6933 13.6099 12 12 12C10.39 12 9.08339 10.6933 9.08339 9.08333C9.08339 7.47333 10.39 6.16667 12 6.16667Z" fill="currentColor"/>
<path fill-rule="evenodd" clip-rule="evenodd" d="M19 17.8333C19 16.286 18.2624 14.8024 16.9497 13.7087C15.6371 12.6144 13.8563 12 12 12C10.1436 12 8.36293 12.6144 7.05029 13.7087C5.73765 14.8024 5 16.286 5 17.8333C5 18.1931 5 18.4167 5 18.4167C5 18.739 5.31384 19 5.70023 19H18.2998C18.6862 19 19 18.739 19 18.4167V17.8333ZM17.5995 17.8333C17.5995 16.5957 17.01 15.4086 15.9593 14.5336C14.9093 13.6581 13.4852 13.1667 12 13.1667C10.5147 13.1667 9.09065 13.6581 8.04069 14.5336C6.98996 15.4086 6.40046 16.5957 6.40046 17.8333H17.5995Z" fill="currentColor"/>
</svg>
