<svg width="335" height="324" viewBox="0 0 335 324" fill="none" xmlns="http://www.w3.org/2000/svg">
<path d="M254.749 72H293.254C304.159 72 313 82.0736 313 94.5C313 106.927 304.159 117 293.254 117H21.746C10.8406 117 2 127.073 2 139.5C2 151.927 10.8406 162 21.746 162H75.9522" stroke="#7026F4" stroke-width="4"/>
<path d="M267.787 176H293.254C304.159 176 313 186.073 313 198.5C313 210.927 304.159 221 293.254 221H21.746C10.8406 221 2 231.073 2 243.5C2 255.927 10.8406 266 21.746 266H52.1614" stroke="#F4D05D" stroke-width="4"/>
<path d="M259.884 298H313.239C324.153 298 333 289.046 333 278V30C333 18.9543 324.153 10 313.239 10L21.7612 10C10.8474 10 2 18.9543 2 30C2 41.0457 10.8474 50 21.7612 50H65.5224" stroke="#3CFF64" stroke-width="4"/>
<path d="M49.7134 34L65.5652 50L49.7134 66" stroke="#3CFF64" stroke-width="4"/>
</svg>
