<svg width="964" height="368" viewBox="0 0 964 368" fill="none" xmlns="http://www.w3.org/2000/svg">
<path d="M800 78H902C909.957 78 917.587 81.1607 923.213 86.7868C928.839 92.4129 932 100.043 932 108C932 115.957 928.839 123.587 923.213 129.213C917.587 134.839 909.957 138 902 138H32C24.0435 138 16.413 141.161 10.7869 146.787C5.16078 152.413 2 160.043 2 168C2 175.956 5.16078 183.587 10.7869 189.213C16.413 194.839 24.0435 198 32 198H123" stroke="#7026F4" stroke-width="4"/>
<path d="M847 198H902C909.957 198 917.587 201.161 923.213 206.787C928.839 212.413 932 220.044 932 228C932 235.956 928.839 243.587 923.213 249.213C917.587 254.839 909.957 258 902 258H32C24.0435 258 16.413 261.161 10.7869 266.787C5.16078 272.413 2 280.043 2 288C2 295.956 5.16078 303.587 10.7869 309.213C16.413 314.839 24.0435 318 32 318H107" stroke="#F4D05D" stroke-width="4"/>
<path d="M845 318H932C939.956 318 947.587 314.839 953.213 309.213C958.839 303.587 962 287.956 962 280V48C962 40.0435 958.839 32.4129 953.213 26.7868C947.587 21.1607 939.956 18 932 18H32C24.0435 18 16.4129 21.1607 10.7868 26.7868C5.16071 32.4129 2 40.0435 2 48C2 55.9565 5.16071 63.5871 10.7868 69.2132C16.4129 74.8393 24.0435 78 32 78H168.27" stroke="#3CFF64" stroke-width="4"/>
<path d="M154 54L171.608 78L154 102" stroke="#3CFF64" stroke-width="4"/>
</svg>
