<svg viewBox="0 0 24 24" fill="none" xmlns="http://www.w3.org/2000/svg">
<path d="M11.3761 17.4358L4.25688 10.3165C4.08563 10.1453 4 9.93731 4 9.69266C4 9.44801 4.08563 9.24006 4.25688 9.06881L5.06422 8.26147C5.23547 8.09021 5.44343 8.00459 5.68807 8.00459C5.93272 7.98012 6.14067 8.05352 6.31193 8.22477L12 13.9128L17.6881 8.22477C17.8593 8.05352 18.0673 7.98012 18.3119 8.00459C18.5566 8.00459 18.7645 8.09021 18.9358 8.26147L19.7431 9.06881C19.9144 9.24006 20 9.44801 20 9.69266C20 9.93731 19.9144 10.1453 19.7431 10.3165L12.6239 17.4358C12.4526 17.6315 12.2446 17.7294 12 17.7294C11.7554 17.7294 11.5474 17.6315 11.3761 17.4358Z" fill="currentColor"/>
</svg>
