<svg width="24" height="24" viewBox="0 0 24 24" fill="none" xmlns="http://www.w3.org/2000/svg">
<path d="M22 5.89404C21.2641 6.21528 20.4733 6.43239 19.6433 6.53006C20.4905 6.03017 21.1411 5.23857 21.4474 4.2954C20.642 4.7659 19.7608 5.09739 18.8419 5.27556C18.0934 4.49058 17.027 4 15.8468 4C13.5807 4 11.7434 5.80852 11.7434 8.03911C11.7434 8.35573 11.7798 8.66397 11.8497 8.95967C8.43953 8.79117 5.41609 7.18314 3.39227 4.73937C3.03914 5.33594 2.8368 6.02986 2.8368 6.77C2.8368 8.17139 3.56125 9.40765 4.66219 10.132C4.01059 10.1119 3.37332 9.93869 2.80359 9.62676C2.80336 9.64368 2.80336 9.66059 2.80336 9.67759C2.80336 11.6346 4.21773 13.2672 6.09477 13.6383C5.49054 13.8 4.85674 13.8237 4.2418 13.7075C4.76391 15.3122 6.2793 16.4799 8.07477 16.5126C6.67047 17.5959 4.90117 18.2417 2.97883 18.2417C2.64758 18.2417 2.32102 18.2225 2 18.1852C3.81586 19.3313 5.97266 20 8.28984 20C15.8373 20 19.9644 13.8451 19.9644 8.50754C19.9644 8.33235 19.9605 8.15816 19.9525 7.98497C20.7558 7.41331 21.4492 6.70526 22 5.89404Z" fill="currentColor"/>
</svg>
