<svg viewBox="0 0 24 24" fill="none" xmlns="http://www.w3.org/2000/svg">
<path d="M11.6641 4.10547L10.9609 4.80859C10.8906 4.87891 10.8555 4.97266 10.8555 5.08984C10.8555 5.20703 10.8906 5.3125 10.9609 5.40625L16.4102 10.8555H4.42188C4.30469 10.8555 4.19922 10.9023 4.10547 10.9961C4.03516 11.0664 4 11.1602 4 11.2773V12.2617C4 12.3789 4.03516 12.4844 4.10547 12.5781C4.19922 12.6484 4.30469 12.6836 4.42188 12.6836H16.4102L10.9609 18.1328C10.8906 18.2266 10.8555 18.332 10.8555 18.4492C10.8555 18.5664 10.8906 18.6602 10.9609 18.7305L11.6641 19.4336C11.7578 19.5039 11.8633 19.5391 11.9805 19.5391C12.0977 19.5391 12.1914 19.5039 12.2617 19.4336L19.6094 12.0508C19.7031 11.9805 19.75 11.8867 19.75 11.7695C19.75 11.6523 19.7031 11.5586 19.6094 11.4883L12.2617 4.10547C12.1914 4.03516 12.0977 4 11.9805 4C11.8633 4 11.7578 4.03516 11.6641 4.10547Z" fill="currentColor"/>
</svg>
