<svg viewBox="0 0 24 24" fill="none" xmlns="http://www.w3.org/2000/svg">
<path d="M11.3761 7.29347L4.25688 14.4127C4.08563 14.584 4 14.7919 4 15.0366C4 15.2812 4.08563 15.4892 4.25688 15.6604L5.06422 16.4678C5.23547 16.639 5.44343 16.7247 5.68807 16.7247C5.93272 16.7491 6.14067 16.6757 6.31193 16.5045L12 10.8164L17.6881 16.5045C17.8593 16.6757 18.0673 16.7491 18.3119 16.7247C18.5566 16.7247 18.7645 16.639 18.9358 16.4678L19.7431 15.6604C19.9144 15.4892 20 15.2812 20 15.0366C20 14.7919 19.9144 14.584 19.7431 14.4127L12.6239 7.29347C12.4526 7.09775 12.2446 6.99989 12 6.99989C11.7554 6.99989 11.5474 7.09775 11.3761 7.29347Z" fill="currentColor"/>
</svg>
