<svg viewBox="0 0 24 24" fill="none" xmlns="http://www.w3.org/2000/svg">
<path d="M21.5971 7.1978C21.475 6.75824 21.2552 6.37973 20.9377 6.06227C20.6203 5.74481 20.2418 5.52503 19.8022 5.40293C19.1673 5.23199 17.6777 5.10989 15.3333 5.03663L12 5L8.66667 5.03663C6.32234 5.10989 4.83272 5.23199 4.1978 5.40293C3.75824 5.52503 3.37973 5.74481 3.06227 6.06227C2.74481 6.37973 2.52503 6.75824 2.40293 7.1978C2.23199 7.85714 2.10989 8.85836 2.03663 10.2015C2.01221 10.8852 2 11.4957 2 12.033L2.03663 13.8645C2.10989 15.232 2.23199 16.2454 2.40293 16.9048C2.52503 17.3199 2.74481 17.6862 3.06227 18.0037C3.37973 18.3211 3.75824 18.5409 4.1978 18.663C4.83272 18.8339 6.32234 18.956 8.66667 19.0293L12 19.0659L15.3333 19.0293C17.6777 18.956 19.1673 18.8339 19.8022 18.663C20.2418 18.5409 20.6203 18.3211 20.9377 18.0037C21.2552 17.6862 21.475 17.3199 21.5971 16.9048C21.768 16.2454 21.8901 15.232 21.9634 13.8645L22 12.033L21.9634 10.2015C21.8901 8.85836 21.768 7.85714 21.5971 7.1978ZM9.94872 15.0366V9.06593L15.1868 12.033L9.94872 15.0366Z" fill="currentColor"/>
</svg>
