<svg viewBox="0 0 24 24" fill="none" xmlns="http://www.w3.org/2000/svg">
<path d="M19.7143 3H4.28571C3.9375 3 3.62946 3.13393 3.36161 3.40179C3.12054 3.64286 3 3.9375 3 4.28571V19.7143C3 20.0625 3.12054 20.3571 3.36161 20.5982C3.62946 20.8661 3.9375 21 4.28571 21H19.7143C20.0625 21 20.3571 20.8661 20.5982 20.5982C20.8661 20.3571 21 20.0625 21 19.7143V4.28571C21 3.9375 20.8661 3.64286 20.5982 3.40179C20.3571 3.13393 20.0625 3 19.7143 3ZM5.77232 18.4286V9.83036H8.46429V18.4286H5.77232ZM7.09821 8.66518C6.66964 8.66518 6.30804 8.51786 6.01339 8.22321C5.71875 7.90179 5.57143 7.54018 5.57143 7.13839C5.57143 6.70982 5.71875 6.34821 6.01339 6.05357C6.30804 5.73214 6.66964 5.57143 7.09821 5.57143C7.52679 5.57143 7.88839 5.73214 8.18304 6.05357C8.50446 6.34821 8.66518 6.70982 8.66518 7.13839C8.66518 7.54018 8.50446 7.90179 8.18304 8.22321C7.88839 8.51786 7.52679 8.66518 7.09821 8.66518ZM18.4286 18.4286H15.7768V14.25C15.7768 13.5536 15.7098 13.0446 15.5759 12.7232C15.3884 12.2143 14.9866 11.9598 14.3705 11.9598C13.7545 11.9598 13.3125 12.1875 13.0446 12.6429C12.8571 12.9911 12.7634 13.5 12.7634 14.1696V18.4286H10.1116V9.83036H12.683V10.9955H12.7232C12.9107 10.6205 13.2054 10.3125 13.6071 10.0714C14.0893 9.77679 14.6384 9.62946 15.2545 9.62946C16.4866 9.62946 17.3571 10.0179 17.8661 10.7946C18.2411 11.4107 18.4286 12.3884 18.4286 13.7277V18.4286Z" fill="currentColor"/>
</svg>
