<svg viewBox="0 0 24 24" fill="none" xmlns="http://www.w3.org/2000/svg">
<path d="M18.625 7.75H5.375C5.27083 7.75 5.17708 7.71875 5.09375 7.65625C5.03125 7.57292 5 7.47917 5 7.375V6.375C5 6.27083 5.03125 6.1875 5.09375 6.125C5.17708 6.04167 5.27083 6 5.375 6H18.625C18.7292 6 18.8125 6.04167 18.875 6.125C18.9583 6.1875 19 6.27083 19 6.375V7.375C19 7.47917 18.9583 7.57292 18.875 7.65625C18.8125 7.71875 18.7292 7.75 18.625 7.75ZM18.625 12.75H5.375C5.27083 12.75 5.17708 12.7188 5.09375 12.6562C5.03125 12.5729 5 12.4792 5 12.375V11.375C5 11.2708 5.03125 11.1875 5.09375 11.125C5.17708 11.0417 5.27083 11 5.375 11H18.625C18.7292 11 18.8125 11.0417 18.875 11.125C18.9583 11.1875 19 11.2708 19 11.375V12.375C19 12.4792 18.9583 12.5729 18.875 12.6562C18.8125 12.7188 18.7292 12.75 18.625 12.75ZM18.625 17.75H5.375C5.27083 17.75 5.17708 17.7188 5.09375 17.6562C5.03125 17.5729 5 17.4792 5 17.375V16.375C5 16.2708 5.03125 16.1875 5.09375 16.125C5.17708 16.0417 5.27083 16 5.375 16H18.625C18.7292 16 18.8125 16.0417 18.875 16.125C18.9583 16.1875 19 16.2708 19 16.375V17.375C19 17.4792 18.9583 17.5729 18.875 17.6562C18.8125 17.7188 18.7292 17.75 18.625 17.75Z" fill="currentColor"/>
</svg>
