<svg width="150" height="31" fill="none" xmlns="http://www.w3.org/2000/svg"><path d="M40.14 25.9c1.661 2.286 2.59 3.028 4.022 3.12h.23v1.128h-8.974V29.02l.183.047c1.081.046 2.057-.387 2.057-.974 0-.34-.091-.479-.975-1.653l-3.565-4.822-3.305 4.281c-.974 1.268-1.204 1.608-1.204 1.948 0 .68.975 1.22 2.178 1.22l.275-.046v1.128h-7.404v-1.128h.305c1.69-.154 3.03-1.082 4.814-3.46l3.732-4.839-3.975-5.454c-2.27-3.06-2.85-3.554-4.326-3.647h-.32v-1.128h8.469v1.128h-.228c-1.112 0-1.6.247-1.6.88 0 .403.045.45.852 1.468l3.123 4.235 2.94-3.693c.746-1.02.974-1.36.974-1.654 0-.741-.883-1.22-2.223-1.22h-.183v-1.129h7.13v1.128h-.138c-1.341.047-2.406.726-4.325 2.921l-3.58 4.435 5.041 6.907ZM55.084 9.735c5.454 0 9.551 4.527 9.566 10.6 0 6.09-4.067 10.57-9.55 10.57-2.194 0-4.723-.926-6.291-2.332-2.103-1.9-3.306-4.914-3.306-8.422 0-5.888 4.19-10.415 9.582-10.415l-.001-.001Zm-.046 20.12c4.112 0 5.94-2.921 5.925-9.35 0-6.567-1.873-9.642-5.895-9.642-4.007 0-5.927 3.074-5.927 9.503 0 6.568 1.797 9.489 5.896 9.489Zm19.574-.587c1.066 0 1.92-.634 2.757-1.947l.67.433c-.883 1.947-2.665 3.168-4.676 3.168-1.66 0-3.213-.974-3.93-2.441-.579-1.128-.67-2.04-.67-5.749V11.637h-2.59V10.51c2.544-.046 4.646-2.627 5.042-6.135h.716v6.135h5.438v1.128h-5.423v11.838c0 2.58.09 3.507.442 4.233.396.974 1.294 1.56 2.223 1.56h.001Zm13.223-5.843c-.092 5.255.046 5.549 2.666 5.61h.441v1.129H81.27v-1.128h.715c1.34.046 1.966-.201 2.362-.927.228-.387.274-.681.274-1.608.045-.248.045-.726.045-1.56v-7.464c0-5.023-.213-5.409-2.803-5.362h-.579v-1.113c2.011-.201 5.21-.88 6.063-1.267h.488v13.69Zm15.507 6.229c2.819 0 4.768-1.515 5.53-4.265h.974c-1.02 3.6-3.611 5.547-7.449 5.547-5.256 0-9.095-4.326-9.095-10.369 0-6.134 4.16-10.817 9.506-10.817 3.305 0 6.245 1.808 6.245 3.802 0 .973-.579 1.653-1.386 1.653-1.112 0-1.569-.494-1.874-2.149-.259-1.653-1.02-2.193-2.941-2.193-3.93 0-5.895 2.92-5.895 8.808 0 3.03.67 5.904 1.69 7.603.99 1.499 2.727 2.38 4.693 2.38h.002Zm18.645 0c2.803 0 4.767-1.515 5.529-4.265h.976c-1.02 3.6-3.61 5.547-7.449 5.547-5.256 0-9.094-4.326-9.094-10.369 0-6.134 4.158-10.817 9.505-10.817 3.306 0 6.246 1.808 6.246 3.802 0 .973-.579 1.653-1.386 1.653-1.111 0-1.569-.494-1.873-2.149-.259-1.653-1.02-2.193-2.94-2.193-3.93 0-5.896 2.92-5.896 8.808 0 3.03.67 5.904 1.691 7.603.99 1.499 2.727 2.38 4.692 2.38h-.001Zm27.237-3.122v-.015H150c-.091 2.535-1.478 4.095-3.702 4.095-1.95 0-3.077-1.081-3.474-3.415-3.077 2.396-5.254 3.415-7.22 3.415-2.59 0-4.463-1.745-4.463-4.188 0-2.936 2.406-5.27 8.302-7.896l3.381-1.515v-.973c0-1.994-.045-2.535-.35-3.215-.624-1.36-1.965-2.086-3.747-2.086-1.432 0-2.681.387-3.168 1.066-.351.434-.396.587-.579 1.607-.183 1.421-.853 2.195-1.783 2.195-.807 0-1.34-.572-1.34-1.406 0-.865.594-1.839 1.569-2.72 1.387-1.159 3.306-1.745 5.758-1.745 3.032 0 5.088.973 6.201 2.874.532.973.624 1.608.624 3.987v7.942c0 2.766 0 2.766.183 3.308.228.68.671 1.02 1.203 1.02.945 0 1.6-.82 1.829-2.335Zm-6.368-.634v-7.742l-2.407 1.066c-3.701 1.67-5.621 3.755-5.621 6.29 0 1.993 1.067 3.353 2.59 3.353 1.34 0 3.291-1.067 5.438-2.967ZM84.666 4.652a1.29 1.29 0 0 1 1.265-1.283c.7 0 1.263.556 1.263 1.268v.015a1.27 1.27 0 0 1-1.263 1.283 1.27 1.27 0 0 1-1.265-1.283Zm-80.69 9.334c-.685 0-1.249-.573-1.263-1.283a1.27 1.27 0 0 1 1.263-1.283 1.28 1.28 0 0 1 1.265 1.283 1.27 1.27 0 0 1-1.265 1.283ZM83.6 5.81h-.32a3.571 3.571 0 0 1-.853-2.287C82.427 1.576 83.98 0 85.9 0c1.92 0 3.472 1.577 3.472 3.523 0 .819-.304 1.639-.852 2.287h-.29a3.65 3.65 0 0 0 .29-1.39c0-1.684-1.159-3.044-2.605-3.044-1.432 0-2.605 1.36-2.605 3.044 0 .479.092.958.29 1.39H83.6Zm59.667-1.204a6.312 6.312 0 0 1-3.991 1.514 6.093 6.093 0 0 1-4.219-1.715l.899-.958c1.737 1.668 4.661 1.746 6.475.17l.837.989h-.001ZM9.582 17.185h-.9c-.09 1.204-.09 1.746-.09 2.379 0 3.26.548 5.98 1.432 7.495 1.035 1.653 2.59 2.58 4.463 2.58 2.59 0 4.601-1.36 5.667-3.894h1.02c-.93 3.121-3.838 5.16-7.312 5.16-5.088 0-8.927-4.465-8.927-10.415 0-1.173.168-2.27.427-3.306h-.275s-3.122.062-4.523-2.627c0 0-.411-.865-.564-1.515h.807c.23.634.55 1.097.884 1.5 1.554 1.73 3.96 1.529 3.96 1.529v.016c1.31-3.832 4.327-6.35 8.028-6.35 3.885 0 6.917 2.781 7.404 6.66l.03.263c.015.185.06.34.06.526H9.583v-.001Zm.122-4.235c-.488.773-.701 1.515-.93 3.26h8.562c.09-.433.09-.68.09-1.02 0-2.627-1.569-4.434-3.884-4.434-1.57 0-2.94.834-3.84 2.194h.002Z" fill="#fff"/></svg>