<svg width="150" height="37" fill="none" xmlns="http://www.w3.org/2000/svg"><path d="M120.765 23.18a4.75 4.75 0 0 1-4.737-4.738c0-2.607 2.098-4.77 4.737-4.77a4.75 4.75 0 0 1 4.738 4.738c0 2.607-2.131 4.77-4.738 4.77Zm0-13.895c-5.024 0-9.125 4.07-9.125 9.125a9.106 9.106 0 0 0 9.125 9.127c5.024 0 9.127-4.07 9.127-9.127 0-5.056-4.103-9.125-9.127-9.125ZM140.841 23.18a4.75 4.75 0 0 1-4.737-4.738c0-2.607 2.099-4.77 4.737-4.77a4.75 4.75 0 0 1 4.738 4.738c0 2.607-2.13 4.77-4.738 4.77Zm0-13.895c-5.024 0-9.124 4.07-9.124 9.125 0 .224 0 .445.031.669l.35 15.42c0 1.336.635 2.418 1.844 2.418s2.004-1.082 2.004-2.417l.063-5.088v-.54c.095-2.099 1.972-1.812 1.972-1.812a8.798 8.798 0 0 0 2.892.477c5.024 0 9.127-4.071 9.127-9.127 0-5.056-4.134-9.125-9.159-9.125ZM27.523 11.797c0-1.622-.637-2.512-1.846-2.512-1.206 0-2.002.89-2.002 2.512l-.445 8.235c-.065.35-.478 2.734-3.275 2.926-3.02.19-3.69-3.37-3.753-4.198v-.031l-.35-4.453c0-1.62-.54-2.51-1.749-2.51-1.208 0-1.906.89-1.906 2.51l-.414 4.453c-.063.795-.637 4.387-3.657 4.197-3.02-.192-3.308-2.989-3.308-2.989l-.508-8.205c0-1.62-.795-2.51-2.004-2.51-1.208 0-1.843.89-1.843 2.51l-.414 5.883s0 .097-.031.287v.158c-.064 1.145-.032 4.198 1.461 6.138 1.272 2.035 3.753 3.466 6.71 3.466 1.749 0 3.339-.509 4.548-1.336a1.887 1.887 0 0 1 1.177-.413c.413 0 .793.127 1.111.35 1.24.859 2.862 1.399 4.643 1.399 2.862 0 5.248-1.336 6.583-3.244 1.875-2.416 1.557-6.742 1.557-6.742l-.285-5.88ZM100.627 23.18c-2.61 0-4.74-2.098-4.74-4.707v-.031a4.75 4.75 0 0 1 4.74-4.738 4.75 4.75 0 0 1 4.737 4.738 4.73 4.73 0 0 1-4.737 4.737Zm-9.572 2.577c0-.034 0-.034 0 0 .031 0 .095.031.126.031l-.126-.031Zm-12.496-2.578a4.75 4.75 0 0 1-4.74-4.737c0-2.607 2.1-4.77 4.74-4.77a4.75 4.75 0 0 1 4.738 4.738c0 2.607-2.13 4.77-4.738 4.77Zm-39.81 0a4.75 4.75 0 0 1-4.738-4.737c0-2.607 2.098-4.77 4.737-4.77a4.73 4.73 0 0 1 4.738 4.738c0 2.607-2.13 4.77-4.738 4.77Zm62.004-13.894c-5.087-.063-9.253 4.037-9.253 9.125 0 .224 0 .445.031.669l-.063 2.067c.032.158.032.348.032.54a1.618 1.618 0 0 1-1.399 1.398 1.652 1.652 0 0 1-1.78-1.145l-.732-4.864v-.095c-.7-4.324-4.453-7.632-8.998-7.663-5.025 0-9.127 4.069-9.127 9.125 0 .955.16 1.877.413 2.767.064.253.032.508-.063.795-.19.635-.764 1.112-1.43 1.144h-.095a1.501 1.501 0 0 1-1.496-1.43l-.826-19.174c0-1.622-.635-2.512-1.844-2.512s-2.004.89-2.004 2.512l-.637 18.378c-.031.859-.508 1.686-1.303 2.067a2.262 2.262 0 0 1-1.017.224 2.3 2.3 0 0 1-2.099-1.306c-.031-.031-.031-.063-.063-.126v-.064c-.35-1.271-.382-8.776-.382-8.776L56.11 2.512C56.11.89 55.473 0 54.264 0c-1.208 0-2.002.89-2.002 2.512l-.7 18.855v.127c0 .892-.732 1.622-1.622 1.622a1.631 1.631 0 0 1-1.462-.922c-.031-.031-.063-.127-.128-.318 0-.032-.032-.095-.032-.127-.158-.858-.285-2.575-.285-2.575l-.223-1.876v-.065c-.572-4.482-4.451-7.948-9.093-7.916-5.025.031-9.096 4.197-9.064 9.222.032 4.99 4.102 9.03 9.127 9.03 1.907 0 3.689-.574 5.15-1.59 0 0 .701-.477 1.146-.477.508 0 .89.445.89.445.922 1.113 2.225 1.78 3.72 1.78 1.273 0 2.416-.509 3.306-1.367 0 0 .732-.637 1.527-.669.509-.031.922.287 1.146.477a4.735 4.735 0 0 0 3.465 1.527c1.367 0 2.576-.572 3.498-1.527l.318-.158s.319-.287 1.017-.319c.508-.031.987.35 1.177.51.89.922 2.099 1.494 3.434 1.494a4.697 4.697 0 0 0 3.275-1.335l.509-.382s.508-.445.985 0c.542.509 1.909.954 1.909.954a9.076 9.076 0 0 0 3.37.637c.922 0 1.78-.129 2.608-.382 1.111-.255 2.733-1.177 2.733-1.177s.319-.287 1.019-.319c.508-.031.953.319 1.143.51l.129.127c.54.509 1.335.827 2.194.827.54 0 1.016-.126 1.461-.318.255-.095.7-.222.987-.19.477.095.796.572.796.572l.284 3.433.095 3.88c0 1.335.414 2.417 1.717 2.417h.35c1.304 0 1.846-1.082 1.846-2.386V29.92c.063-.158.095-.348.095-.666-.063-1.846 1.112-2.099 1.685-2.13a8.99 8.99 0 0 0 2.926.476c5.088 0 9.188-4.166 9.125-9.253-.127-4.961-4.134-8.999-9.062-9.062Z" fill="#fff"/></svg>