<svg width="150" height="50" fill="none" xmlns="http://www.w3.org/2000/svg"><path d="M138.078 36.395c-.021-.022-.021-.066 0 0ZM17.758 31.059l.065.086c-.021-.065-.043-.108-.065-.086ZM33.376 16.027c.933-.022 2.43-1.497.998-1.974-.76-.39-2.17-.217-2.668.325-.326.477-.13.976.217 1.41 0 0 .13.26 1.453.239ZM149.813 12.404c-2.126-1.171-4.88-1.54-8.568-1.345-.043 0-.108.022-.151.022-2.755.152-6.031.63-9.957 1.345-.108.022-.217.022-.304.043.564-1.28 1.888-4.533 3.037-7.266.738-1.692-.889-1.367-1.562-.239-1.67 2.972-1.952 4.143-3.622 7.809-.716.109-2.148.282-2.712.499-.282.108-.694.173-.759.824-.022.5-.022.673.217.911.152.152.39.239.564.217.629-.065 1.28-.152 1.909-.26-.282.694-.738 1.692-1.237 2.863-.672 1.432-1.93 3.774-2.775 4.989-.803 1.15-2.386 2.885-4.208 3.97-1.757.867-2.625-.37-2.603-1.714.108-1.93.911-3.145 1.627-4.382.282-.499.694-1.518-.044-1.887-.737-.39-1.497.477-1.822.911-.738.976-1.605 2.104-2.603 3.167l-.152.152c-1.388 1.366-6.551 5.14-7.05 3.774-.152-.954.326-1.605.434-1.887a14.64 14.64 0 0 1 .738-1.562c.607-1.063 1.301-2.082 1.995-3.08.282-.412.521-2.126-.499-1.735-.997.39-1.757.694-2.798.867-.564.087-1.15.152-1.714.174h-.303c.021-.043.021-.087.043-.13.195-.542.434-1.562-.412-1.388a3.356 3.356 0 0 0-2.278 1.8c-.282.607-.368 1.345.022 1.822a14.86 14.86 0 0 1-3.362 4.078c-.52.412-1.475.954-2.169.954-1.02 0-.889-.737-.607-1.475.087-.238.195-.477.304-.737.65-1.367 1.258-2.191 2.125-3.774.477-1.063-.759-2.82-1.735-1.085-.499.78-1.605 2.516-2.603 3.84-1.54 2.038-3.427 4.012-4.642 2.798-1.236-1.627.781-3.927 2.213-6.204.433-1.041-.955-2.69-2.148-.846-.282.39-.52.738-.737 1.063a50.313 50.313 0 0 1-3.558 3.6v.022c-.26.217-.542.456-.802.65-1.822 1.41-3.319 2.213-3.319 1.476-.022-.412.109-1.02.347-1.757.174-.499.347-1.02.52-1.518.391-1.042.89-2.235 1.389-3.471.109-.26.217-.52.347-.78.781-1.801 1.475-3.298 1.757-3.753 1.085-.13 12.039-1.714 17.873-2.321 4.469-.478 6.204-.434 9.219-.087 1.454.173 2.148.586 3.124.239.13-.044.499-.196.108-.413-5.726-3.6-22.71-.52-29.413.347.65-1.54 2.017-4.533 3.167-7.266.737-1.692-.911-1.367-1.562-.239-1.67 2.972-2.082 4.143-3.752 7.81-.716.108-2.148.281-2.712.498-.282.108-.694.174-.759.824-.022.5-.022.673.217.911.152.152.39.239.564.217.63-.065 1.171-.152 1.822-.238-.65 1.344-1.583 3.08-2.581 5.357-.499.911-1.041 1.8-1.453 2.408-.803 1.15-2.386 2.885-4.208 3.97-1.258.628-1.54-.326-1.562-.977 0-.325.087-.65.217-.976.087-.238.78-1.8.867-2.06.434-1.085-.412-1.063-1.04-.846-.24.086-.478.412-.521.086-.022-.108 0-.368-.044-.65-.065-.825-.412-1.367-.716-1.8-2.45-3.493-8.936 2.472-8.004 6.29-2.342 1.214-3.774 1.822-3.709-1.519-.108-4.728-2.538-2.32-4.794.066-.477.498-1.496 1.735-1.908 2.169.303-.434 1.15-1.758 1.431-2.343 1.345-2.928 2.148-7.071-.91-5.314-2.95 1.843-9.241 6.745-9.241 6.745.043-.108 1.02-2.212 1.106-2.472.477-1.302-.13-1.475-.76-1.128-.238.087-.802.737-.823.369-.022-.109 0-.37-.044-.651a3.72 3.72 0 0 0-.086-.52v-.022c-.933-4.49-4.772-3.016-7.028-.26-.347.39-.63.78-.846 1.17-.933 1.714-2.863 3.905-4.49 4.642l-.022.022c-1.735.846-2.603-.369-2.581-1.713.108-1.931.91-3.146 1.627-4.382.282-.499.694-1.518-.044-1.887-.737-.39-1.496.477-1.822.91-.737.977-1.605 2.105-2.603 3.168l-.152.152c-.846.846-3.101 2.56-4.837 3.47-1.084.738-.26 2.104.5 1.887 1.93-.91 4.099-2.407 5.053-3.319.065-.043.152 0 .13.066-.043.368-.108 1.04-.086 1.345.086 2.038 1.865 3.166 4.12 2.754 1.454-.26 3.537-1.909 4.643-3.015.152.63.347 1.106.477 1.323 1.475 2.386 3.232 1.562 5.466.109.087-.065.217.021.065.152-1.583 1.453-10.325 8.936-12.364 14.446-1.04 2.711-1.366 4.49-.282 6.225.651 1.085 3.015 2.04 4.816.347 1.778-1.735 6.962-13.318 9.283-19.522.152-.13 10.239-8.33 10.76-8.307.585-.044-2.452 4.945-2.994 5.986-.673 1.215-.044 2.82 1.193 3.232.239.087.52.13.76.022.216-.087 2.95-2.95 3.882-4.165 1.735-2.256.954.52 1.8 1.67 1.475 2.04 3.991 1.107 5.922-.216 1.778 3.232 4.858.477 6.442-1.02.065.217.108.434.174.63.238 1.019 1.17 2.407 2.884 2.103 1.779-.325 3.32-1.692 4.469-2.993-.911 5.683 3.99 1.93 4.793 1.41.022-.022.63-.412 1.67-1.367.543-.412 1.085-.867 1.454-1.258-.065.911.043 1.93.52 2.755 1.606 2.343 3.753 1.258 6.313-.824-.044.607.043 1.193.477 1.67.65.716 1.778.737 2.646.499 1.974-.542 3.775-2.343 5.011-3.883a19.124 19.124 0 0 0 1.995-2.95c.607 0 1.236-.108 1.735-.173a11.428 11.428 0 0 0 1.757-.326c-.434.716-1.084 1.453-1.431 2.234-.521 1.15-1.193 2.712-.781 3.992.108.347.282.607.52.759.304.238.955.477 1.519.412 2.061-.087 6.269-2.798 7.657-4.165.043-.043.108 0 .108.043-.043.348-.108 1.085-.086 1.41.086 2.04 1.865 3.167 4.121 2.755 1.779-.325 3.319-1.692 4.469-2.993-.911 5.683 4.359 2.06 5.161 1.431 6.356-5.552 5.402-7.375 4.426-6.897-.347.087-3.016 3.058-4.035 3.817-1.822 1.41-3.319 2.213-3.319 1.475-.022-.412.108-1.02.347-1.757.174-.498.347-1.02.521-1.518.39-1.041.889-2.234 1.388-3.492.195-.478.412-.955.629-1.432.521-1.193 1.02-2.32 1.345-3.145 3.102-.564 8.872-1.627 12.343-1.8 1.562-.13 3.08-.196 4.359-.13 1.453.086 2.191.455 3.123.065.109-.13.434-.282.044-.478ZM35.133 44.312c-3.145 5.791-5.314 3.405-3.34-1.93 1.496-3.45 3.578-5.684 9.608-11.714-.78 1.887-5.227 11.735-6.268 13.644Zm7.809-20.39c-.955 1.063-3.037 3.47-4.143 2.104-1.475-1.778 1.822-5.553 3.188-5.531 1.518-.065 1.909 2.451.955 3.427Zm28.241-.065c-.91.976-2.95 3.406-4.078 2.343-1.214-1.302.456-3.991 2.104-5.054.37-.239.673-.434 1.085-.477.629-.066.89.216 1.128.585.477.716.39 1.952-.239 2.603Z" fill="#fff"/><path d="M21.316 20.517c-3.731-6.486-14.837-4.924-14.381-9.783.477-4.078 7.83-8.481 11.93-8.763 6.594-.347 2.537 6.963 4.945 6.833 1.54-.065 1.605-5.466.39-6.876C20.276-3.69 4.636 4.097 4.463 10.886c-.109 1.453.716 2.625 2.494 3.73 1.627 1.064 4.686 1.997 4.686 1.997 16.832 5.4 3.578 15.27-6.334 12.19-6.486-1.952-.152-7.397-2.495-8.047 0 0-1.106-.37-2.169 2.386-4.186 9.739 13.167 11.018 19.392 4.446 3.492-3.818 1.28-7.071 1.28-7.071ZM120.335 16.027c.825-.022 2.169-1.497.89-1.974-.673-.39-1.931-.217-2.365.325-.282.477-.108.976.195 1.41-.021 0 .109.26 1.28.239Z" fill="#fff"/></svg>