<svg viewBox="0 0 24 24" fill="none" xmlns="http://www.w3.org/2000/svg">
<path d="M12.0859 4.10547L12.7891 4.80859C12.8594 4.87891 12.8945 4.97266 12.8945 5.08984C12.8945 5.20703 12.8594 5.3125 12.7891 5.40625L7.33984 10.8555H19.3281C19.4453 10.8555 19.5508 10.9023 19.6445 10.9961C19.7148 11.0664 19.75 11.1602 19.75 11.2773V12.2617C19.75 12.3789 19.7148 12.4844 19.6445 12.5781C19.5508 12.6484 19.4453 12.6836 19.3281 12.6836H7.33984L12.7891 18.1328C12.8594 18.2266 12.8945 18.332 12.8945 18.4492C12.8945 18.5664 12.8594 18.6602 12.7891 18.7305L12.0859 19.4336C11.9922 19.5039 11.8867 19.5391 11.7695 19.5391C11.6523 19.5391 11.5586 19.5039 11.4883 19.4336L4.14062 12.0508C4.04688 11.9805 4 11.8867 4 11.7695C4 11.6523 4.04688 11.5586 4.14062 11.4883L11.4883 4.10547C11.5586 4.03516 11.6523 4 11.7695 4C11.8867 4 11.9922 4.03516 12.0859 4.10547Z" fill="currentColor"/>
</svg>
