<svg viewBox="0 0 24 24" fill="none" xmlns="http://www.w3.org/2000/svg">
<path d="M4.85739 10.794H2V13.6906H4.85739V10.794Z" fill="currentColor"/>
<path d="M7.71484 7.89854H4.85746L4.85739 10.794L7.71484 10.7951V7.89854Z" fill="currentColor"/>
<path d="M7.71484 13.6907L4.85739 13.6906L4.85746 16.5873H7.71484V13.6907Z" fill="currentColor"/>
<path d="M19.1426 13.6907H22V10.7942H19.1426V13.6907Z" fill="currentColor"/>
<path d="M16.2852 16.5862H19.1425L19.1426 13.6907L16.2852 13.6897V16.5862Z" fill="currentColor"/>
<path d="M16.2855 10.794L19.1426 10.7942L19.1429 7.89752H16.2855V10.794Z" fill="currentColor"/>
<path d="M10.5713 5H7.7139V7.89652H10.5713V5Z" fill="currentColor"/>
<path d="M10.5713 16.5862H7.7139V19.4828H10.5713V16.5862Z" fill="currentColor"/>
<path d="M16.2869 5H13.4295V7.89652H16.2869V5Z" fill="currentColor"/>
<path d="M16.2869 16.5862H13.4295V19.4828H16.2869V16.5862Z" fill="currentColor"/>
</svg>
