<svg width="150" height="43" fill="none" xmlns="http://www.w3.org/2000/svg"><path d="M.601 31.69h1.858c.082 0 .191-.027.218-.246V2.704H15.19c.11 0 .219-.081.219-.19V.737c0-.164-.164-.164-.219-.164H.382v30.898c0 .109.082.19.164.218h.055ZM142.579 38.711h-22.648a.216.216 0 0 0-.219.219v1.694c0 .109.055.19.164.218h22.703c.109 0 .191-.082.218-.191V38.93c.027-.082-.027-.191-.218-.219ZM62.588.574H46.907V31.69h15.736c.082 0 .164-.054.164-.136v-1.831c0-.164-.164-.164-.219-.164H49.174V2.705h13.469c.027 0 .164 0 .164-.164V.738c0-.164-.164-.164-.219-.164ZM82.45 16.965l-8.224-4.316c-1.748-.93-2.595-2.514-2.595-4.918 0-2.513 1.584-5.19 6.01-5.19 3.633 0 5.846 1.94 6.229 5.436.027.11.191.164.328.11l1.912-.492c.191-.028.328-.219.273-.437v-.055C85.891 3.852 84.033 0 77.914 0c-2.404 0-4.562.738-6.065 2.076-1.639 1.339-2.486 3.224-2.486 5.491 0 2.159.437 5.273 4.29 7.24l6.911 3.524c2.432 1.284 3.606 3.033 3.606 5.355 0 2.95-2.049 6.146-6.502 6.146-5.764 0-6.365-4.535-6.365-6.474 0-.191-.11-.219-.164-.219H69.281l-.054.028c-.192.027-.192.136-.192.218 0 3.961 2.268 8.606 8.66 8.606a10.035 10.035 0 0 0 3.99-.738c3.25-1.093 5.108-3.77 5.108-7.349a6.059 6.059 0 0 0-.765-2.923c-.683-1.721-1.94-3.169-3.579-4.016ZM132.908 29.532h-10.71V.792c0-.109-.054-.191-.163-.218h-1.94c-.109 0-.164.082-.164.191V31.69h12.977c.109 0 .191-.054.218-.164V29.723c-.027-.191-.191-.191-.218-.191Z" fill="#fff"/><path d="M53.409 17.266c.956 0 1.42-.437 1.42-1.42 0-.984-.437-1.421-1.42-1.421-.984 0-1.42.437-1.42 1.42 0 .984.436 1.42 1.42 1.42ZM7.485 14.425c-.956 0-1.42.437-1.42 1.42 0 .984.437 1.42 1.42 1.42.984 0 1.421-.436 1.421-1.42 0-.983-.464-1.42-1.42-1.42ZM2.677 38.028c.547 0 1.038.246 1.366.683l.11.137.764-.574-.109-.136a2.873 2.873 0 0 0-.929-.793 2.712 2.712 0 0 0-3.606 1.202A2.667 2.667 0 0 0 0 39.75a2.72 2.72 0 0 0 .792 1.885 2.72 2.72 0 0 0 1.885.792c.847 0 1.64-.382 2.131-1.065l.11-.136-.765-.547-.11.137a1.71 1.71 0 0 1-2.404.355 1.71 1.71 0 0 1-.355-2.404 1.712 1.712 0 0 1 1.393-.738ZM17.238 37.072c-1.475 0-2.65 1.202-2.65 2.677s1.203 2.65 2.678 2.65a2.652 2.652 0 0 0 2.65-2.65 2.682 2.682 0 0 0-2.678-2.677Zm0 4.371c-.956 0-1.72-.765-1.72-1.694 0-.956.764-1.72 1.693-1.72.956 0 1.721.764 1.721 1.693 0 .956-.765 1.721-1.694 1.721ZM32.756 39.586c-.3-.164-.629-.246-.984-.301l-.164-.027a1.589 1.589 0 0 1-.683-.246.398.398 0 0 1-.191-.355.543.543 0 0 1 .328-.438c.136-.054.3-.081.437-.081.41.027.82.19 1.12.464l.137.11.6-.738-.136-.11a3.077 3.077 0 0 0-1.339-.655c-.136-.028-.245-.028-.382-.028-.3 0-.574.055-.847.192a1.58 1.58 0 0 0-.628.491 1.423 1.423 0 0 0-.246.793c0 .246.055.491.191.683.137.218.3.382.52.519a6.15 6.15 0 0 0 1.147.355c.245.027.464.11.655.218.137.082.246.219.246.383a.525.525 0 0 1-.382.519 1.07 1.07 0 0 1-.492.11c-.11 0-.219 0-.328-.028a2.342 2.342 0 0 1-1.065-.546l-.137-.11-.628.71.136.11c.437.382.93.628 1.503.765.164.027.355.054.519.054.3 0 .6-.054.874-.19.273-.11.492-.301.656-.52.164-.246.273-.546.246-.847 0-.246-.055-.492-.192-.71-.054-.246-.245-.437-.491-.546ZM45.432 39.121l-1.366-1.885h-.902v5.109h.956V38.93l1.312 1.803 1.338-1.803v3.415h.956v-5.109h-.901l-1.393 1.885ZM57.37 42.345h3.306v-.956h-2.35v-1.53h2.104v-.957h-2.104v-.737h2.404v-.929h-3.36v5.109ZM70.374 38.165h1.257v4.18h.956v-4.18h1.257v-.929h-3.47v.929ZM84.443 37.236h-.956v5.109h.956v-5.109ZM96.764 38.028c.547 0 1.038.246 1.366.683l.11.137.764-.574-.109-.136a2.874 2.874 0 0 0-.929-.793c-1.31-.655-2.923-.136-3.578 1.175a2.7 2.7 0 0 0-.3 1.202 2.72 2.72 0 0 0 .791 1.885 2.691 2.691 0 0 0 1.885.792c.847 0 1.64-.382 2.131-1.065l.11-.137-.765-.546-.11.136a1.71 1.71 0 0 1-2.404.356 1.71 1.71 0 0 1-.355-2.404 1.76 1.76 0 0 1 1.393-.71ZM111.872 39.586c-.301-.164-.628-.246-.984-.301l-.164-.027a1.595 1.595 0 0 1-.683-.246.4.4 0 0 1-.191-.355.545.545 0 0 1 .328-.438c.137-.054.301-.081.437-.081.41.027.82.19 1.12.464l.137.11.601-.738-.137-.11a3.076 3.076 0 0 0-1.338-.655c-.137 0-.246-.028-.383-.028-.3 0-.574.055-.847.192-.246.109-.464.273-.628.491a1.423 1.423 0 0 0-.246.793c0 .246.055.491.191.683.137.218.301.382.519.519.383.164.765.273 1.148.355.246.027.464.11.655.218.137.082.246.219.246.383a.524.524 0 0 1-.382.519c-.164.082-.328.11-.492.11-.109 0-.218 0-.328-.028a2.34 2.34 0 0 1-1.065-.546l-.137-.11-.628.71.136.11a3.43 3.43 0 0 0 1.503.765c.164.027.355.054.519.054.301 0 .601-.054.874-.19.274-.11.492-.301.656-.52a1.56 1.56 0 0 0 .273-.847 1.32 1.32 0 0 0-.191-.71c-.082-.246-.301-.437-.519-.546ZM94.66 31.663h1.886c.082 0 .191-.055.191-.246V16.61h12.813v14.807c0 .137.082.219.218.246h1.913c.082 0 .191-.055.191-.246V.792c0-.136-.082-.218-.219-.246h-1.912c-.082 0-.191.055-.191.246v13.633H96.737V.792c0-.136-.082-.218-.218-.218h-1.913c-.082 0-.191.054-.191.246v30.597c0 .137.082.219.218.246h.028ZM149.818.574h-1.94c-.109 0-.273 0-.382.355l-5.901 16.61h-.492l-.027-.055L134.465.93c-.109-.355-.273-.355-.383-.355h-1.939a.384.384 0 0 0-.164.054c-.028.055-.028.137.027.246l8.114 19.97v10.573c0 .11.054.191.164.219H142.551c.082 0 .164-.028.164-.219V21.063l7.24-20.189c.054-.109.054-.218.027-.273-.055-.027-.109-.027-.164-.027ZM38.602 31.636l-6.994-13.36.273-.081c3.825-1.039 5.683-3.798 5.683-8.387V8.85c0-3.77-1.694-8.277-9.835-8.277h-6.092v30.898c0 .109.054.19.164.218h1.912c.164 0 .164-.164.164-.218V18.55h5.436l6.584 13.086c.028.054.082.136.164.136h2.404c.164 0 .137-.082.137-.136ZM28.139 16.419h-4.235V2.705h4.07c4.918 0 7.322 2.021 7.322 6.146v.957c0 5.791-3.442 6.61-7.157 6.61Z" fill="#fff"/></svg>