<svg width="164" height="31" viewBox="0 0 164 31" fill="none" xmlns="http://www.w3.org/2000/svg">
<path fill-rule="evenodd" clip-rule="evenodd" d="M33.6957 15.378C32.8317 20.4076 35.578 23.6168 41.163 23.6168C45.5756 23.6168 48.6612 21.9195 50.4818 18.4945C50.8829 17.7229 50.7903 17.3835 50.0806 17.1367L48.4144 16.4888C47.7048 16.211 47.3961 16.3654 46.9332 17.1367C45.915 19.0498 44.1562 20.0065 41.7185 20.0065C38.5093 20.0065 37.0282 18.4329 37.5528 15.5938L38.7562 8.77454C39.219 5.93579 41.2556 4.39288 44.4647 4.39288C46.9024 4.39288 48.3218 5.34955 48.6921 7.23163C48.8464 8.00323 49.0932 8.15732 49.9264 7.87984L51.4692 7.35531C52.2406 7.10825 52.4258 6.79978 52.3024 6.02847C51.7161 2.5415 49.3092 0.782805 45.0201 0.782805C39.3733 0.782805 35.7632 3.65227 34.8682 8.62016L33.6957 15.378ZM52.391 17.3528C51.743 21.2099 53.9338 23.6168 58.4698 23.6168C63.0675 23.6168 65.8753 21.4877 66.5852 17.6306L67.3875 13.0638C68.0354 9.14499 65.9062 6.70709 61.3395 6.70709C56.8035 6.70709 53.903 8.92892 53.1933 12.786L52.391 17.3528ZM63.0365 17.4455C62.697 19.2969 61.2161 20.3766 58.9636 20.3766C56.7111 20.3766 55.6309 19.2969 55.9704 17.4455L56.7727 12.8784C57.1121 10.9964 58.5625 9.947 60.815 9.947C63.0675 9.947 64.1783 10.9964 63.8388 12.8784L63.0365 17.4455ZM69.1123 17.0443C68.3717 21.1172 70.1923 23.6168 74.6357 23.6168C76.6618 23.6203 78.6744 23.2865 80.591 22.6292C81.671 22.2283 81.9488 21.9195 82.1032 20.9322L85.5592 1.27635C85.6825 0.566735 85.4972 0.319672 84.7876 0.319672H83.0906C82.4423 0.319672 82.0722 0.628428 81.9795 1.27635L80.9304 7.10824C79.5419 6.83048 78.3384 6.70709 77.3511 6.70709C73.0621 6.70709 70.5627 8.74364 69.8529 12.8167L69.1123 17.0443ZM78.7396 19.667C78.6779 19.8214 78.5855 19.9448 78.4618 20.0065C77.5978 20.2225 76.6105 20.3459 75.5307 20.3459C73.2162 20.3459 72.2598 19.3275 72.6299 17.2601L73.3398 13.2489C73.741 10.9347 75.0058 9.97799 77.4744 9.97799C78.246 9.97799 79.2024 10.1014 80.3752 10.3791L78.7396 19.667ZM85.6484 16.6432C85.2472 18.6796 85.525 20.3458 86.4817 21.6418C87.438 22.9686 89.1043 23.6168 91.5112 23.6168C94.8128 23.6168 97.2196 22.6602 98.7317 20.7471C99.2562 20.0992 99.2253 19.5746 98.639 19.1735L97.6826 18.5562C97.0347 18.0934 96.6952 18.2168 96.0473 18.9264C95.1523 20.0065 93.8255 20.531 92.0665 20.531C89.7523 20.531 88.7342 19.4509 89.0736 17.4455L89.2587 16.3654C90.678 16.6122 91.9431 16.7356 93.0541 16.7356C97.5899 16.7356 100.089 15.4087 100.614 12.4466C100.953 10.7493 100.552 9.36077 99.4413 8.28099C98.3305 7.23163 96.726 6.70699 94.6278 6.70709C90.03 6.70709 87.0679 8.92892 86.3273 12.9711L85.6484 16.6432ZM97.1581 12.0454C96.8803 13.3413 95.6768 13.9893 93.5477 13.9895C92.4676 13.9895 91.2025 13.866 89.7523 13.619L89.8756 12.9711C90.2768 10.9654 91.8507 9.73121 94.1032 9.73121C96.3557 9.73121 97.4358 10.5642 97.1581 12.0454ZM108.356 1.27635C108.479 0.566735 108.294 0.319672 107.584 0.319672H105.918C105.178 0.319672 104.9 0.566735 104.776 1.27635L101.104 22.1973C100.95 22.9069 101.135 23.154 101.876 23.154H103.542C104.252 23.154 104.53 22.9069 104.684 22.1973L108.356 1.27635ZM122.055 7.16993C121.345 7.16993 121.067 7.386 120.944 8.09562L119 19.1425C117.889 19.4202 116.809 19.5743 115.76 19.5743C113.538 19.5743 112.582 18.5562 112.921 16.5195L114.402 8.09562C114.556 7.386 114.371 7.16993 113.662 7.16993H111.964C111.255 7.16993 110.977 7.386 110.823 8.09562L109.403 16.3654C108.694 20.4076 110.391 22.8452 114.68 22.8452C115.853 22.8452 117.087 22.6911 118.414 22.4134L118.167 23.8636C117.766 26.0851 116.469 27.1962 114.31 27.1962C112.798 27.1962 111.81 26.6715 111.347 25.6223C111.008 24.9744 110.699 24.882 109.866 25.2521L108.663 25.8384C107.922 26.2088 107.706 26.7333 108.046 27.3813C108.91 29.387 110.823 30.4051 113.816 30.4051C118.352 30.4051 121.006 28.1526 121.777 23.6785L124.523 8.09562C124.647 7.386 124.461 7.16993 123.752 7.16993H122.055Z" fill="#2D4358"/>
<path fill-rule="evenodd" clip-rule="evenodd" d="M125.46 0C124.645 0 124.319 0.293695 124.156 1.10874L123.862 2.70668C123.732 3.52202 123.96 3.81542 124.775 3.81542H130.417L127.188 22.0439C127.058 22.8589 127.286 23.1523 128.102 23.1523H129.96C130.775 23.1523 131.134 22.8589 131.264 22.0439L134.493 3.81542H140.102C140.917 3.81542 141.276 3.52202 141.406 2.70668L141.699 1.10874C141.862 0.293695 141.602 0 140.786 0H125.46ZM161.586 0C160.249 0 159.89 0.163068 159.499 0.978403L152.227 14.9025C151.705 15.8806 151.216 17.0221 150.792 18.3264H150.596C150.596 18.3588 150.531 16.2392 150.335 14.8698L148.02 0.978403C147.89 0.195797 147.531 0 146.259 0H144.629C143.879 0 143.553 0.358868 143.683 1.07631L147.792 22.2721C147.89 22.9568 148.216 23.1523 148.999 23.1523H150.727C151.509 23.1523 151.868 22.9893 152.26 22.2394L163.803 1.07631C164.194 0.358868 163.999 0 163.249 0H161.586V0Z" fill="#10FB7A"/>
<path fill-rule="evenodd" clip-rule="evenodd" d="M5.43071 0.282532C3.11637 0.282532 2.24563 1.22201 2.24563 3.35303V8.55454C2.24563 9.83776 1.74152 10.4794 0.733285 10.4793H0.549943C0.183309 10.4793 -5.43391e-06 10.7085 1.20808e-10 11.1668V12.4729C1.20808e-10 13 0.137484 13.1833 0.572856 13.1833H0.733252C1.74148 13.1833 2.24559 13.8249 2.2456 15.1081V20.2179C2.2456 22.3948 3.09342 23.2655 5.45358 23.2655H6.59929C7.12634 23.2655 7.30966 23.0822 7.30966 22.5552V21.5699C7.30966 21.0429 7.12634 20.8595 6.59929 20.8595H5.52233C5.01827 20.8595 4.76616 20.5845 4.76616 20.0576V14.7185C4.76616 13.2291 4.21628 12.2667 3.13928 11.8313C4.21628 11.1897 4.76616 10.2273 4.76616 8.92118V3.49052C4.76616 2.96349 5.01827 2.68853 5.52233 2.68853H6.59933C7.12637 2.68853 7.30969 2.50521 7.30969 1.97819V0.992871C7.30969 0.465841 7.12637 0.282532 6.59933 0.282532H5.43071ZM23.967 0.282532C23.44 0.282532 23.2796 0.465841 23.2796 0.992871V1.97819C23.2796 2.50521 23.44 2.68853 23.967 2.68853H25.044C25.571 2.68853 25.8231 2.96349 25.8231 3.49052V8.92118C25.8231 10.2273 26.35 11.2126 27.427 11.8313C26.35 12.2438 25.8231 13.2062 25.8231 14.7185V20.0576C25.8231 20.5845 25.571 20.8595 25.044 20.8595H23.967C23.44 20.8595 23.2796 21.0429 23.2796 21.5699V22.5552C23.2796 23.0822 23.44 23.2655 23.967 23.2655H25.1127C27.4729 23.2655 28.3207 22.3948 28.3207 20.2179V15.1081C28.3207 13.8249 28.8248 13.1833 29.8331 13.1833H29.9935C30.383 13.1833 30.5892 12.9541 30.5892 12.4729V11.1668C30.5892 10.7085 30.4059 10.4793 30.0164 10.4793H29.8331C28.8248 10.4793 28.3207 9.83774 28.3207 8.55455V3.35304C28.3207 1.22201 27.45 0.28254 25.1585 0.28254H23.967V0.282532Z" fill="#10FB7A"/>
<path fill-rule="evenodd" clip-rule="evenodd" d="M20.0171 11.2036L12.5693 6.51175C12.3492 6.38069 12.0758 6.40253 11.8693 6.40253C11.0434 6.40253 11.047 7.04011 11.047 7.20166V16.7912C11.047 16.9277 11.0434 17.5903 11.8693 17.5903C12.0758 17.5903 12.3493 17.6121 12.5693 17.481L20.017 12.7893C20.6284 12.4256 20.5227 11.9964 20.5227 11.9964C20.5227 11.9964 20.6284 11.5672 20.0171 11.2036Z" fill="#2D4358"/>
</svg>
