<svg width="150" height="36" fill="none" xmlns="http://www.w3.org/2000/svg"><path fill-rule="evenodd" clip-rule="evenodd" d="M37.91 20.523c-.184-.136-.338-.168-.579-.129-.42.07-.882.45-1.179 1.086-.924 1.981-2.336 2.38-2.336 2.38l-8.123-2.463a6.719 6.719 0 0 0-2.012-.308h-5.507s.83-1.17 1.326-1.853c1.142-1.575 2.8-1.575 3.381-1.575h5.331c.612 0 1.212-.165 1.738-.476l5.329-3.155c.146.058.756.319 1.276.309.606-.012.757-.147.781-.3.021-.132-.14-.27-.468-.247-.704.05-.796-.874.739-1.055.272-.032.553.07.6-.15.03-.146-.135-.286-.404-.332a5.086 5.086 0 0 0-.65-.018s.01-.2-.319-.2c-.209 0-1.007.215-1.668.448-.362.128-6.429 2.55-6.429 2.55h-3c-.468 1.014-.917 1.33-.917 1.33s-.28.164-.579.138c-.194-.087-1.16-1.116-1.251-1.748.146-1.13.51-1.975.51-1.975s2.045.703 3.478.12c.323-.734-.058-.767-.078-1.243-.02-.475-.028-.883-.311-1.255-.283-.373-.776-.448-.758-.7.018-.252-.085-.5-.42-.624-.333-.124-.314-.488-.812-.508-.498-.02-.747.209-1.051.224-.386.02-.568.227-.621.48-.053.252-.058.531-.339.628-.28.096-.707.15-.69.687.019.538-.221.934-.627 1.213-.474-.616-1.381-1.031-4.367-2.173-.527-.2-5.39-2.348-9.829-7.353-.48-.54-.912-1.53-1.42-1.884C5.38.2 5.007.286 5.007.286A3.389 3.389 0 0 0 4.49.053c-.193-.056-.449-.102-.52.05-.097.202.205.28.412.46.394.339.8.709.87.908.136.394-.179.54-.235.542-.21.003-.271-.125-.394-.254-.226-.237-.353-.159-.41-.037-.065.14.028.334.028.334.092.163.206.346.498.526.481.298.803.309.956.343h-.001l9.762 11.02c-3.052 1.829-5.848 4.313-7.12 7.117 2.87-1.054 5.398-.826 7.528-.495l-.382.521s-4.063-.162-7.005 2.587c-1.383 2.044-.889 6.61-.889 6.61-2.124 0-3.415-1.268-3.415-1.268s-2.978.49-4.02 4.195c-.27.955-.205 2.045.354 2.352.612.335 1.122-.263 1.308-.611.952-1.79 2.528-2.362 2.528-2.362l2.472 1.874c1.168.825 1.878-.145 2.27-.68l4.56-6.37 9.84-2.896s6.78 1.2 8.655 1.52a9.031 9.031 0 0 1 3.101 1.18s1.115-.733 1.922-2.01c.562-.891.89-1.934 1-2.988.08-.742.09-1.444-.254-1.698ZM53.683 20.932l1.208-6.725.117-1.95h.553l.087 1.95 1.233 6.725h-3.198ZM52.329 10.19 48.4 30.568h3.552l1.167-6.492h4.339l1.19 6.492h3.552l-3.96-20.378h-5.91ZM60.655 13.363h4.338v17.205h3.435V13.363h4.309V10.19H60.655v3.173ZM77.482 13.334h1.66c.524 0 .999.111 1.426.334.427.224.737.53.932.917.116.214.198.452.247.714.048.262.073.548.073.858 0 .33-.03.636-.087.918a3.145 3.145 0 0 1-.262.771c-.214.369-.524.65-.932.844-.407.194-.873.291-1.397.291h-1.66v-5.648Zm3.552 8.21v-.455c.57-.099 1.1-.266 1.587-.506.824-.408 1.46-1 1.906-1.776.252-.408.442-.864.568-1.369.126-.504.19-1.008.19-1.513 0-.621-.069-1.209-.204-1.762a6.104 6.104 0 0 0-.554-1.47 4.473 4.473 0 0 0-2.037-1.892c-.874-.408-1.903-.612-3.086-.612h-5.357v20.38h3.435v-8.88h.91l3.428 8.88h3.843l-3.494-8.706-1.135-.32ZM91.528 20.932l1.209-6.725.116-1.95h.553l.088 1.95 1.232 6.725h-3.198ZM90.175 10.19l-3.93 20.378h3.551l1.167-6.492h4.34l1.19 6.492h3.551l-3.96-20.378h-5.91ZM109.068 17.25c-.058.261-.174.519-.349.77a2.335 2.335 0 0 1-.961.932c-.407.214-.893.32-1.455.32h-1.543v-5.938h1.543c.562 0 1.048.107 1.455.32.408.213.728.514.961.902.175.253.291.52.349.8.059.283.088.608.088.976 0 .35-.029.655-.088.917Zm3.465-.918c0-.64-.068-1.261-.204-1.863a6.491 6.491 0 0 0-.553-1.572 5.627 5.627 0 0 0-2.184-1.994c-.912-.476-1.97-.713-3.173-.713h-5.094v20.378h3.435v-8.093h1.659c1.203 0 2.261-.243 3.173-.728a5.658 5.658 0 0 0 2.184-2.038 7.898 7.898 0 0 0 .553-1.572 7.667 7.667 0 0 0 .204-1.805ZM117.147 20.932l1.208-6.725.117-1.95h.553l.087 1.95 1.233 6.725h-3.198Zm-1.354-10.742-3.93 20.378h3.552l1.167-6.492h4.339l1.19 6.492h3.551l-3.959-20.378h-5.91ZM130.669 10.19h-3.435v20.378h9.258v-3.173h-5.823V10.189ZM146.492 22.504c-.029.66-.097 1.286-.204 1.878a11.947 11.947 0 0 1-.335 1.44c-.174.447-.388.82-.64 1.122a2.432 2.432 0 0 1-.859.67c-.32.145-.694.217-1.121.217-.369 0-.723-.072-1.062-.218a2.077 2.077 0 0 1-.845-.655c-.223-.29-.422-.67-.596-1.135-.233-.582-.393-1.35-.481-2.3a34.683 34.683 0 0 1-.058-5.24c.048-.68.111-1.32.189-1.922.078-.601.194-1.077.35-1.426.174-.466.373-.845.596-1.136.223-.29.5-.51.83-.655.33-.145.689-.218 1.077-.218.408 0 .786.073 1.136.218.349.146.64.37.873.67.233.301.437.674.611 1.12.214.583.364 1.35.452 2.3.087.952.131 2 .131 3.145 0 .757-.015 1.465-.044 2.125Zm3.304-5.895c-.136-1.116-.339-2.082-.611-2.897-.349-.873-.777-1.601-1.281-2.184a4.837 4.837 0 0 0-1.878-1.324c-.747-.3-1.645-.451-2.693-.451-.951 0-1.805.15-2.562.45a5.317 5.317 0 0 0-1.95 1.325c-.544.583-.951 1.31-1.223 2.184a15.393 15.393 0 0 0-.495 1.921 18.996 18.996 0 0 0-.291 2.213c-.058.776-.087 1.62-.087 2.533 0 1.378.063 2.625.189 3.74.126 1.117.354 2.092.684 2.926.272.874.674 1.602 1.208 2.184a5.163 5.163 0 0 0 1.951 1.325c.766.3 1.635.45 2.605.45 1.029 0 1.917-.15 2.664-.45a4.833 4.833 0 0 0 1.878-1.325c.504-.582.932-1.31 1.281-2.184.213-.562.378-1.193.495-1.892a21.68 21.68 0 0 0 .247-2.212 41.7 41.7 0 0 0 .073-2.562c0-1.398-.068-2.654-.204-3.77ZM96.554 5.482l-5.729.695v2.411h5.729V5.482Z" fill="#fff"/></svg>