<svg width="150" height="38" fill="none" xmlns="http://www.w3.org/2000/svg"><path d="M16.8 7.514c1.803-.6 3.37-.966 4.787-1.116 1.39-.146 2.436-.215 3.29-.215.913 0 1.588.078 2.362.204l.22-1.391s-2.138-.657-4.946-.427l-.22-.757a1.928 1.928 0 1 0-.803 0l.245.841c-2.981.412-5.355 1.577-5.355 1.577l.42 1.284ZM8.344 13.207c.07-.089.138-.173.206-.256l-.569-.413-.89-.652c-.053.072-1.452 1.358-2.557 3.739a1.623 1.623 0 0 0-.165-.217c-.331-.366-.795-.547-1.382-.537H2.96c-.367 0-.616-.124-.781-.27a1.22 1.22 0 1 0-.657.428c.3.334.778.625 1.475.612.359-.006.62.087.797.282.203.222.271.54.291.78l-.003.009c-.797 2.17-.568 4.871-.568 4.871l1.927.077c.04-.984.181-2.703.679-4.071.96-2.64 2.161-4.298 2.212-4.368l.01-.014ZM41.66 7.796a1.22 1.22 0 0 0-1.18 1.524c-.334.3-.624.778-.613 1.475.006.358-.087.619-.282.797-.153.14-.351.215-.538.255C37.609 9.84 35.84 8.61 35.84 8.61l-1.384 1.485c1.047.953 2.114 2.144 3.155 3.632.717 1.025 1.455 2.353 2.072 3.673l1.869-.884s-.853-2.11-2.056-3.998c.21-.075.42-.186.603-.352.366-.332.547-.797.537-1.383-.006-.381.12-.637.27-.806a1.22 1.22 0 1 0 .753-2.18ZM36.811 24.586c-2.57 1.252-6.804 2.907-12.371 3.682a45.55 45.55 0 0 1-6.255.418c-2.536 0-4.78-.193-6.5-.41a47.846 47.846 0 0 1-4.443-.761 16.301 16.301 0 0 0 1.095 2.64l.031.06a13.732 13.732 0 0 0 1.972 2.825c2.625 2.875 5.302 3.327 5.328 3.331l.042.007.04.013c.023.007 2.396.776 6.005.776 3.55 0 7.031-.716 10.35-2.127 2.458-1.257 4.786-3.17 5.934-4.874a13.55 13.55 0 0 0 1.919-4.185c.203-.778.361-2.018.27-3.328a29.62 29.62 0 0 1-3.417 1.933Z" fill="#999"/><path d="M24.223 26.741c5.34-.744 9.397-2.322 11.858-3.515 2.046-.991 3.362-1.888 3.87-2.258-.505-1.876-1.9-4.82-3.182-6.652-3.657-5.227-7.6-6.569-9.625-6.903a12.696 12.696 0 0 0-2.268-.202c-.818 0-1.828.067-3.181.21-1.356.143-2.867.498-4.62 1.085-2.46.824-4.684 2.117-6.434 3.738l-.059.054c-.26.242-.801.743-1.423 1.536-.077.107-1.169 1.686-2.049 4.107-.66 1.816-.606 4.463-.606 4.49v.007c0 .617.011 1.234.08 1.846 0 .01-.01.02-.01.03.01.076.014.152.023.228v.015c.054.426.119.85.204 1.268H6.8c1.183.324 8.903 2.102 17.424.916Zm7.32-14.123a3.18 3.18 0 1 1 0 6.36 3.18 3.18 0 0 1 0-6.36Zm-15.035-.128a5.139 5.139 0 1 1 0 10.278 5.139 5.139 0 0 1 0-10.278Z" fill="#999"/><path d="M61.306 9.963c.296 0 .592.046 1.029.094.39.046.684.093.84.093.343 0 .639-.14.888-.39.25-.295.389-.591.389-.98 0-1.184-1.23-1.76-3.628-1.76-1.37 0-2.46.203-3.24.545-.778.342-1.367.934-1.663 1.666-.342.78-.495 1.822-.495 3.099v1.266h-.986c-1.37 0-2.119.504-2.119 1.531 0 .437.141.889.5 1.123.341.295.84.483 1.416.483h1.19v10.95c0 .841.168 1.48.556 1.869.39.435.87.638 1.463.638.639 0 1.144-.203 1.549-.638.39-.436.614-1.075.614-1.869v-10.95h.965c.731 0 1.323-.138 1.76-.34.436-.203.638-.69.638-1.329 0-.934-.778-1.468-2.398-1.468h-.964v-.924c0-.95.062-1.588.25-2.024.201-.436.653-.685 1.446-.685ZM75.29 15.553c0-.732-.39-1.323-1.23-1.712-.841-.436-1.667-.639-2.554-.639-.888 0-1.573.203-2.118.639-.544.436-1.027 1.074-1.526 1.962-.046-.84-.202-1.526-.498-1.962-.295-.436-.796-.639-1.544-.639-1.37 0-2.026.934-2.026 2.803v11.632c0 .84.22 1.48.609 1.915.39.436.897.638 1.488.638.592 0 1.105-.202 1.51-.638.39-.436.576-1.075.576-1.915v-3.488c0-1.277.067-2.305.114-3.192.094-.888.26-1.62.446-2.258.203-.639.504-1.122.893-1.417.39-.343.89-.498 1.529-.498.435 0 .981.093 1.573.295.592.203.935.296 1.122.296.389 0 .78-.14 1.122-.498.31-.39.514-.794.514-1.324ZM89.724 22.102c.592-.296.889-.923.889-1.998 0-1.12-.297-2.229-.889-3.304-.591-1.074-1.478-1.947-2.6-2.632-1.183-.686-2.553-1.02-4.22-1.02-1.276 0-2.398.206-3.441.595a6.896 6.896 0 0 0-2.6 1.714c-.685.732-1.23 1.668-1.62 2.695a10.984 10.984 0 0 0-.545 3.442c0 2.6.732 4.718 2.211 6.229 1.48 1.51 3.582 2.304 6.229 2.304 1.184 0 2.212-.14 3.1-.435.887-.296 1.665-.686 2.257-1.184.592-.436 1.027-.934 1.323-1.479.296-.499.437-.934.437-1.324 0-.435-.141-.732-.39-.98-.249-.25-.591-.343-1.028-.343-.39 0-.685.093-.934.296-.546.498-.934.887-1.277 1.183a7.59 7.59 0 0 1-1.074.779c-.39.249-.778.436-1.184.545-.39.093-.887.203-1.37.203-.732 0-1.417-.203-2.056-.546-.638-.343-1.121-1.05-1.48-1.735-.389-.731-.544-1.576-.59-2.622h8.143c1.277.001 2.118-.087 2.71-.383Zm-10.697-1.707c.14-1.57.545-2.507 1.23-3.238.686-.733 1.527-1.098 2.554-1.098 1.074 0 1.963.377 2.648 1.109.685.685 1.027 1.658 1.183 3.227h-7.615ZM107.087 22.102c.592-.296.888-.923.888-1.998 0-1.12-.296-2.229-.888-3.304-.592-1.074-1.479-1.947-2.601-2.632-1.183-.686-2.553-1.02-4.219-1.02-1.277 0-2.398.206-3.442.595a6.9 6.9 0 0 0-2.6 1.714c-.685.732-1.23 1.668-1.62 2.695a11.001 11.001 0 0 0-.545 3.442c0 2.6.732 4.718 2.212 6.229 1.48 1.51 3.581 2.304 6.228 2.304 1.184 0 2.212-.14 3.099-.435.888-.296 1.666-.686 2.258-1.184.592-.436 1.027-.934 1.324-1.479.295-.499.436-.934.436-1.324 0-.435-.141-.732-.39-.98-.249-.25-.591-.343-1.027-.343-.39 0-.685.093-.935.296-.544.498-.934.887-1.276 1.183a7.541 7.541 0 0 1-1.075.779 4.258 4.258 0 0 1-1.183.545c-.39.093-.888.203-1.371.203-.731 0-1.416-.203-2.055-.546-.639-.343-1.122-1.05-1.48-1.735-.389-.731-.545-1.576-.591-2.622h8.143c1.247.001 2.072-.087 2.71-.383ZM96.39 20.395c.14-1.57.544-2.507 1.23-3.238.685-.733 1.525-1.098 2.553-1.098 1.074 0 1.962.377 2.647 1.109.685.685 1.028 1.658 1.184 3.227H96.39ZM122.55 14.167a6.834 6.834 0 0 0-3.535-.98 6.796 6.796 0 0 0-2.989.684c-.841.436-1.508 1.184-2.554 2.118v-.498c0-.732-.108-1.324-.452-1.713-.389-.39-.794-.591-1.37-.591-.592 0-1.013.202-1.355.591-.344.39-.484.981-.484 1.76v18.017c0 .887.102 1.62.351 2.055.249.498.643.685 1.437.685 1.324 0 1.873-.934 1.873-2.74v-6.276c1.046.934 1.642 1.62 2.421 2.118.84.498 1.88.731 3.047.731a7.05 7.05 0 0 0 2.832-.591 6.34 6.34 0 0 0 2.273-1.666c.638-.732 1.128-1.62 1.486-2.694.358-1.074.548-2.258.548-3.535 0-1.712-.294-3.238-.933-4.515-.683-1.34-1.522-2.259-2.596-2.96Zm-1.23 10.309c-.342.778-.841 1.417-1.418 1.821-.592.39-1.23.592-1.915.592-1.183 0-2.118-.436-2.943-1.37-.778-.935-1.184-2.211-1.184-3.878 0-1.759.39-3.098 1.184-4.017.779-.887 1.76-1.37 2.896-1.37.733 0 1.37.202 1.962.637a3.91 3.91 0 0 1 1.371 1.823c.343.778.498 1.712.498 2.85.093 1.152-.108 2.133-.451 2.912ZM130.196 13.14c-.592 0-1.127.203-1.485.638-.389.436-.596 1.028-.596 1.869v11.928c0 .84.207 1.417.596 1.868.39.436.891.64 1.483.64.591 0 1.115-.203 1.519-.64.39-.436.586-1.074.586-1.915V15.46c0-.732-.195-1.324-.584-1.713-.39-.358-.881-.607-1.519-.607ZM130.274 7.082c-.529 0-1.028.203-1.479.592-.437.39-.639.888-.639 1.479 0 .638.202 1.183.639 1.526.373.359.871.545 1.463.545.545 0 1.028-.202 1.479-.545.39-.343.592-.888.592-1.526 0-.685-.202-1.183-.638-1.526-.436-.342-.888-.545-1.417-.545ZM149.146 26.096l-4.267-6.727 2.196-2.01c1.121-1.027 1.713-1.822 1.713-2.46 0-.498-.203-.934-.545-1.23-.343-.343-.779-.498-1.277-.498-.436 0-.84.093-1.121.342-.296.25-.824.64-1.416 1.277l-4.81 4.905V9.589c0-.84-.11-1.526-.499-1.962-.389-.436-.842-.638-1.48-.638-.639 0-1.25.248-1.592.731-.344.498-.612 1.184-.612 2.118v17.814c0 .84.292 1.48.635 1.915.342.436.932.639 1.571.639.545 0 .958-.203 1.409-.639.436-.436.569-1.028.569-1.868v-3.332l2.35-2.165 3.721 6.042c.498.732.864 1.23 1.144 1.526.296.295.697.389 1.195.389.592 0 1.08-.203 1.422-.592.343-.389.548-.887.548-1.572 0-.25-.045-.498-.201-.732-.125-.28-.357-.67-.653-1.167Z" fill="#fff"/></svg>