<svg width="150" height="36" fill="none" xmlns="http://www.w3.org/2000/svg"><path fill-rule="evenodd" clip-rule="evenodd" d="M13.601 8.263h4.353V25.65h-4.353V23.81c-.85.81-1.702 1.393-2.556 1.75a7.143 7.143 0 0 1-2.779.535c-2.24 0-4.179-.87-5.813-2.612C.818 21.742 0 19.576 0 16.988c0-2.684.792-4.884 2.374-6.6 1.582-1.715 3.502-2.572 5.765-2.572 1.04 0 2.017.197 2.93.591.912.394 1.756.985 2.532 1.774V8.263Zm53.851 24.395a2.198 2.198 0 0 0-.629-1.168 2.21 2.21 0 0 0-1.626-.67c-.628 0-1.164.223-1.611.67a2.207 2.207 0 0 0-.67 1.614c0 .64.225 1.183.67 1.63.447.447.983.671 1.61.671.639 0 1.18-.224 1.627-.67.37-.371.586-.807.65-1.31h46.875c.064.503.282.939.651 1.31.447.447.984.67 1.61.67.638 0 1.179-.224 1.626-.67a2.22 2.22 0 0 0 .671-1.63c0-.63-.224-1.167-.671-1.615a2.211 2.211 0 0 0-1.626-.67c-.626 0-1.163.223-1.61.67a2.204 2.204 0 0 0-.63 1.168H67.452ZM9.025 11.843c-1.344 0-2.463.477-3.353 1.43-.89.954-1.335 2.176-1.335 3.667 0 1.503.453 2.738 1.36 3.708.905.97 2.02 1.454 3.344 1.454 1.367 0 2.5-.477 3.4-1.43.901-.953 1.352-2.203 1.352-3.748 0-1.512-.45-2.737-1.352-3.675-.9-.937-2.038-1.406-3.416-1.406Zm13.312-3.58h4.402v8.373c0 1.63.112 2.762.335 3.396.223.634.584 1.126 1.08 1.478.495.351 1.104.528 1.83.528.724 0 1.338-.174 1.845-.52.507-.346.882-.854 1.128-1.526.18-.5.27-1.571.27-3.211V8.263h4.354v7.367c0 3.036-.24 5.114-.718 6.232-.584 1.364-1.446 2.41-2.583 3.14-1.137.73-2.583 1.095-4.337 1.095-1.902 0-3.442-.426-4.616-1.279-1.175-.852-2-2.04-2.48-3.563-.34-1.055-.51-2.972-.51-5.753V8.263Zm32.415-6.711h4.354v24.097h-4.354V23.81c-.85.81-1.701 1.393-2.556 1.75a7.142 7.142 0 0 1-2.778.535c-2.241 0-4.179-.87-5.813-2.612-1.636-1.742-2.453-3.908-2.453-6.496 0-2.684.791-4.884 2.374-6.6 1.582-1.715 3.502-2.572 5.764-2.572 1.041 0 2.018.197 2.93.591.913.394 1.757.985 2.533 1.774V1.55Zm-4.575 10.29c-1.345 0-2.464.478-3.353 1.431-.89.954-1.335 2.176-1.335 3.667 0 1.503.453 2.738 1.359 3.708.906.97 2.02 1.454 3.344 1.454 1.368 0 2.5-.477 3.4-1.43.902-.953 1.352-2.203 1.352-3.748 0-1.512-.45-2.737-1.352-3.675-.9-.937-2.038-1.406-3.415-1.406Zm12.85-3.579h4.354V25.65h-4.353V8.263Zm25.688 9.955H74.732c.202 1.237.74 2.22 1.62 2.949.875.729 1.994 1.094 3.355 1.094 1.626 0 3.023-.57 4.193-1.71l3.667 1.726c-.914 1.3-2.008 2.261-3.284 2.884-1.275.623-2.79.935-4.544.935-2.721 0-4.938-.86-6.649-2.58-1.712-1.721-2.568-3.876-2.568-6.464 0-2.653.853-4.855 2.56-6.608 1.706-1.752 3.845-2.628 6.418-2.628 2.732 0 4.953.876 6.664 2.628 1.711 1.753 2.567 4.067 2.567 6.943l-.016.831Zm-4.353-3.435c-.288-.97-.854-1.758-1.7-2.365-.847-.607-1.83-.91-2.948-.91-1.213 0-2.278.34-3.194 1.022-.575.426-1.107 1.177-1.597 2.253h9.439Zm7.877-6.52h4.352v1.782c.987-.834 1.882-1.414 2.683-1.74a6.482 6.482 0 0 1 2.461-.489c1.718 0 3.178.602 4.378 1.805 1.007 1.023 1.511 2.536 1.511 4.539v11.488h-4.305v-7.613c0-2.075-.093-3.453-.277-4.133-.187-.681-.509-1.2-.972-1.556-.461-.357-1.03-.535-1.71-.535-.88 0-1.635.295-2.265.886-.632.59-1.07 1.407-1.313 2.45-.128.543-.191 1.718-.191 3.527v6.975h-4.352V8.263Zm30.213 2.43-2.694 2.7c-1.096-1.087-2.088-1.63-2.982-1.63-.488 0-.872.104-1.148.311-.277.208-.415.466-.415.775 0 .235.089.45.264.647.175.198.608.467 1.299.808l1.595.8c1.68.83 2.832 1.677 3.46 2.539.626.864.94 1.875.94 3.036 0 1.545-.565 2.834-1.698 3.867-1.132 1.034-2.649 1.55-4.551 1.55-2.53 0-4.55-.99-6.059-2.972l2.678-2.925a6.212 6.212 0 0 0 1.793 1.447c.687.367 1.295.55 1.826.55.574 0 1.037-.137 1.387-.414.352-.277.526-.596.526-.96 0-.67-.632-1.325-1.897-1.965l-1.466-.735c-2.806-1.416-4.21-3.19-4.21-5.321 0-1.374.528-2.549 1.587-3.523 1.057-.975 2.41-1.462 4.058-1.462a7.027 7.027 0 0 1 5.707 2.876Zm21.127 7.525h-13.984c.203 1.237.741 2.22 1.62 2.949.876.729 1.995 1.094 3.355 1.094 1.627 0 3.024-.57 4.193-1.71l3.667 1.726c-.914 1.3-2.008 2.261-3.284 2.884-1.275.623-2.791.935-4.545.935-2.72 0-4.936-.86-6.648-2.58-1.712-1.721-2.567-3.876-2.567-6.464 0-2.653.853-4.855 2.559-6.608 1.707-1.752 3.845-2.628 6.418-2.628 2.732 0 4.953.876 6.664 2.628 1.711 1.753 2.567 4.067 2.567 6.943l-.015.831Zm-4.353-3.435c-.289-.97-.855-1.758-1.701-2.365-.846-.607-1.828-.91-2.947-.91-1.214 0-2.279.34-3.194 1.022-.575.426-1.108 1.177-1.597 2.253h9.439Zm8.476 6.728c.639 0 1.18.223 1.627.67.447.448.671.986.671 1.614a2.22 2.22 0 0 1-.671 1.63 2.211 2.211 0 0 1-1.627.671 2.192 2.192 0 0 1-1.609-.67 2.222 2.222 0 0 1-.67-1.63c0-.629.224-1.167.67-1.614a2.193 2.193 0 0 1 1.609-.671Zm0-6.81c.639 0 1.18.223 1.627.67.447.449.671.986.671 1.614 0 .64-.224 1.184-.671 1.63a2.212 2.212 0 0 1-1.627.672 2.192 2.192 0 0 1-1.609-.672 2.222 2.222 0 0 1-.67-1.63c0-.628.224-1.165.67-1.613.447-.448.984-.67 1.609-.67ZM8.969 0c.639 0 1.18.223 1.627.67a2.2 2.2 0 0 1 .669 1.614 2.22 2.22 0 0 1-.67 1.63 2.212 2.212 0 0 1-1.626.672 2.193 2.193 0 0 1-1.61-.671 2.225 2.225 0 0 1-.67-1.63c0-.629.224-1.167.67-1.614C7.805.223 8.342 0 8.969 0Z" fill="#fff"/></svg>