<svg width="150" height="53" fill="none" xmlns="http://www.w3.org/2000/svg"><path d="M75.554 29.972h20v6.663h-20v-6.663Z" fill="#666"/><path d="M98.272 7.776h-39.38v28.86h9.412V25.308h29.978c2.783 0 5.055-2.294 5.055-5.098v-7.37a5.07 5.07 0 0 0-5.065-5.065Zm-3.424 9.457a2.524 2.524 0 0 1-2.522 2.522H68.239V13.32h24.109a2.538 2.538 0 0 1 2.522 2.522v1.39h-.022ZM149.978 26.863h-9.282v3.62h-23.337a2.537 2.537 0 0 1-2.522-2.522v-11.51a2.523 2.523 0 0 1 2.522-2.523h23.337v3.522h9.282v-3.62c-.25-3.358-3.076-6.043-6.478-6.043h-31.467c-3.544 0-6.479 2.935-6.479 6.522v15.804c0 3.587 2.913 6.522 6.479 6.522h31.489c3.424 0 6.271-2.728 6.478-6.152v-3.62h-.022ZM64.793 44.06v-.468c0-.272-.043-.457-.086-.598a.507.507 0 0 0-.326-.304 1.787 1.787 0 0 0-.598-.142c-.261-.022-.598-.022-.968-.022a7.09 7.09 0 0 0-1.076.066c-.282.043-.51.141-.641.282a1.05 1.05 0 0 0-.304.598 6.207 6.207 0 0 0-.087 1.033v1.934c0 .435.021.783.065 1.055.043.272.13.5.282.641.13.142.348.25.642.305.26.065.663.087 1.12.087.347 0 .662-.022.923-.044s.49-.065.642-.141a.688.688 0 0 0 .369-.392c.087-.163.13-.413.13-.717v-.478h1.783v.576c.022.663-.065 1.174-.26 1.5-.196.348-.436.598-.794.76-.326.164-.75.25-1.228.283l-1.587.087c-.816.022-1.479-.021-1.979-.12-.489-.119-.902-.304-1.163-.597-.282-.283-.467-.641-.576-1.087-.109-.446-.152-.99-.174-1.63v-2.022c0-.696.087-1.261.218-1.707.152-.435.37-.782.706-1.054.304-.272.728-.435 1.207-.511.51-.087 1.076-.141 1.76-.141.577 0 1.098.021 1.544.043.467.022.837.12 1.163.272.304.163.576.413.75.739.174.326.283.826.326 1.446v.478h-1.782v-.01Zm7.468-2.881c.478.065.891.206 1.217.434.326.207.566.533.74.968.152.413.239.989.239 1.695v2.36c0 .706-.066 1.26-.218 1.695-.152.435-.37.76-.696 1.01-.326.25-.717.414-1.217.5-.5.088-1.087.12-1.772.12-.717 0-1.304-.043-1.793-.12a2.66 2.66 0 0 1-1.196-.478c-.304-.228-.522-.576-.674-1.01-.13-.435-.217-1.011-.217-1.74v-2.358c0-.685.065-1.24.196-1.652.13-.413.347-.74.652-.968.304-.228.695-.37 1.195-.456.5-.087 1.11-.109 1.816-.109.663.01 1.25.043 1.728.109Zm-2.848 1.424c-.282.065-.478.14-.63.271a.91.91 0 0 0-.283.533c-.043.228-.065.51-.087.87v2.358c0 .435.022.761.087 1.033.065.25.174.456.326.576.152.12.37.206.652.25.283.043.63.065 1.066.065.39 0 .739-.022 1.021-.065.283-.044.5-.12.674-.25.174-.141.304-.326.37-.576.065-.272.108-.598.108-1.011v-2.359c0-.413-.021-.728-.108-.967-.087-.228-.196-.413-.37-.511-.174-.12-.391-.185-.674-.228a12.571 12.571 0 0 0-1-.044c-.5-.022-.87 0-1.152.055Zm7.685 7.358h-1.544v-8.88h2.642l2.337 6.598h.043l2.294-6.598h2.695v8.88H84v-7.478l-2.696 7.478h-1.456l-2.718-7.434v7.434h-.032Zm9.587-8.88h3.685c.554 0 1.021.043 1.402.12.38.086.695.25.902.478.24.228.391.532.49.924.097.39.151.913.151 1.532 0 .642-.054 1.13-.152 1.533-.098.402-.272.685-.51.891-.24.207-.533.348-.925.435-.38.065-.826.109-1.38.109H88.26v2.87h-1.598v-8.881l.022-.011Zm3.685 4.543c.293 0 .51-.021.695-.065a.764.764 0 0 0 .413-.228c.098-.109.153-.272.196-.457.043-.184.054-.434.054-.739a7.47 7.47 0 0 0-.043-.782.99.99 0 0 0-.196-.5.761.761 0 0 0-.413-.25 3.325 3.325 0 0 0-.706-.066h-2.087v3.098h2.087v-.01Zm9.674-4.445c.478.065.891.206 1.217.434.326.207.565.533.717.968.174.413.239.989.239 1.695v2.36c0 .706-.065 1.26-.217 1.695-.152.435-.391.76-.696 1.01-.326.25-.717.414-1.217.5-.5.088-1.087.12-1.783.12-.717 0-1.304-.043-1.804-.12a2.61 2.61 0 0 1-1.196-.478c-.304-.228-.521-.576-.652-1.01-.13-.435-.195-1.011-.195-1.74v-2.358c0-.685.065-1.24.195-1.652.13-.413.348-.74.652-.968.305-.228.696-.37 1.196-.456.5-.087 1.109-.109 1.826-.109.652.01 1.218.043 1.718.109Zm-2.86 1.424c-.282.065-.477.14-.63.271a.91.91 0 0 0-.282.533c-.044.228-.065.51-.087.87v2.358c0 .435.022.761.087 1.033.065.25.152.456.304.576.152.12.37.206.652.25.283.043.63.065 1.087.065.392 0 .74-.022 1-.065.283-.044.5-.12.674-.25.174-.141.283-.326.37-.576.087-.272.108-.598.108-1.011v-2.359c0-.413-.021-.728-.087-.967-.086-.228-.217-.413-.369-.511-.174-.12-.391-.185-.674-.228a12.571 12.571 0 0 0-1-.044c-.5-.022-.87 0-1.152.055Zm7.686 7.358h-1.533v-8.88h2.674l3.587 7.413V41.08h1.511v8.88h-2.674l-3.587-7.413v7.413h.022Zm9.989-5.217h3.782v1.402h-3.761v2.348h4.011v1.467h-5.554v-8.88h5.554v1.445h-4.011v2.229l-.021-.011Zm6.674 5.217H120v-8.88h2.641l3.598 7.413V41.08h1.533v8.88h-2.685l-3.576-7.413v7.413h.022Zm11.511 0h-1.642v-7.413h-2.511v-1.467h6.663v1.467h-2.51v7.413Zm5.173-5.217h3.761v1.402h-3.761v2.348h4.011v1.467h-5.554v-8.88h5.554v1.467h-4.011v2.196Zm6.707 2.359v.413c0 .25.022.434.076.597.054.142.152.25.294.316.141.065.326.12.586.141.229.022.544.022.892.022.369 0 .641-.022.858-.066.218-.043.392-.108.49-.206a.692.692 0 0 0 .228-.391c.043-.163.054-.37.054-.62 0-.315-.043-.532-.119-.706a.704.704 0 0 0-.348-.316 1.487 1.487 0 0 0-.587-.108l-.794-.022-1.239-.109c-.391-.043-.717-.12-1.011-.293-.293-.142-.5-.413-.684-.75-.174-.337-.25-.826-.25-1.468 0-.597.076-1.054.25-1.402.174-.337.413-.576.695-.75.315-.163.663-.25 1.065-.293.414-.022.859-.044 1.359-.044.424 0 .815.022 1.185.044.37.043.696.12.956.271.294.142.5.392.664.707.152.337.25.772.25 1.348v.272h-1.577v-.272c0-.228-.021-.413-.076-.555a.545.545 0 0 0-.25-.293 1.068 1.068 0 0 0-.445-.12c-.174-.021-.413-.021-.696-.021-.391 0-.696.021-.935.043a1.284 1.284 0 0 0-.543.163c-.12.087-.218.185-.25.337-.044.141-.055.337-.055.576 0 .272.022.478.055.62a.493.493 0 0 0 .25.337c.13.087.315.141.543.163.229.022.565.065.957.087.641.043 1.163.087 1.576.141.413.065.739.185.989.348.228.163.413.413.5.728.098.315.152.75.152 1.304 0 .62-.076 1.098-.217 1.446-.142.348-.326.62-.598.804a2.037 2.037 0 0 1-1.011.348c-.391.044-.859.066-1.38.066-.446 0-.87-.022-1.305-.044a3.246 3.246 0 0 1-1.108-.25c-.316-.141-.566-.391-.761-.728-.196-.337-.294-.805-.294-1.446v-.413h1.598l.011.044Z" fill="#fff"/><path d="M47.772 12.635v26.587c.326 7.098-9.076 11.63-15.674 12.75-4.565.783-8.88-.87-11.587-2.272L1.489 39.755C.99 39.429 0 38.852 0 36.83V9.755C0 6.08 3.696 8.45 6.49 9.526l14.358 6.022c3.326 1.446 8.174 3.337 12.022 2.967 8.39-.76 14.902-5.88 14.902-5.88Z" fill="url(#a)"/><path d="M30.022 13.157c2.793.674 6.826-.674 10.467-3.152 1.033-.609.946-2.13-1.576-3.229-4.326-1.88-11.685-5.097-11.685-5.097-3.239-1.413-6.12-3.153-6.12.489v7.434s7.098 3.11 8.914 3.555Z" fill="url(#b)"/><defs><linearGradient id="a" x1="-.218" y1="30.428" x2="47.561" y2="30.428" gradientUnits="userSpaceOnUse"><stop stop-color="#333"/><stop offset="0" stop-color="#666"/><stop offset="1" stop-color="#999"/></linearGradient><linearGradient id="b" x1="21.017" y1="6.801" x2="41.017" y2="6.801" gradientUnits="userSpaceOnUse"><stop stop-color="#333"/><stop offset="0" stop-color="#666"/><stop offset="1" stop-color="#999"/></linearGradient></defs></svg>