<svg width="150" height="27" fill="none" xmlns="http://www.w3.org/2000/svg"><path d="M36.861 25.618c-1.04-.224-3.25-.918-3.412-1.071-.116-.11.207-2.804.369-3.065.078-.127.366-.059 1.059.252 3.332 1.493 5.91 1.555 6.733.163.574-.97.204-1.703-2.01-3.978-1.955-2.008-2.639-2.904-3.056-4-1.012-2.659.905-5.524 4.118-6.155 1.4-.275 3.8-.11 5.28.364.664.213 1.24.439 1.28.503.065.106-.079 1.435-.285 2.63-.046.263-.17.478-.277.478-.106 0-.634-.2-1.173-.444-3.03-1.372-5.536-1.005-5.536.811 0 .665.434 1.265 2.339 3.236 2.64 2.732 3.43 4.259 3.19 6.158-.208 1.627-1.169 2.838-2.954 3.725-1.278.635-3.748.806-5.665.393Zm14.936.024c-1.557-.494-2.611-1.388-3.22-2.734-1.371-3.03-.459-7.975 2.09-11.33 2.128-2.8 4.786-4.085 8.091-3.914 1.688.088 2.268.247 3.213.882.967.65 1.61 1.55 1.983 2.776.275.904.305 1.276.24 2.966-.085 2.151-.355 3.239-1.25 5.02-1.696 3.378-4.153 5.589-7.021 6.317-1.053.267-3.306.276-4.126.017Zm4.305-3.024c1.361-.617 2.216-1.554 3.193-3.499.825-1.64 1.145-3.118 1.086-5.001-.084-2.649-.842-3.64-2.772-3.618-2 .022-3.293 1.08-4.61 3.77-1.003 2.049-1.201 2.851-1.194 4.831.006 1.426.043 1.63.44 2.416.308.608.585.937.947 1.125.694.36 2.087.349 2.91-.024Zm25.272 3.033c-1.392-.46-2.262-1.196-2.668-2.257-.378-.99-.194-2.756.818-7.848.491-2.472.893-4.54.893-4.595 0-.054-1.77-.081-3.933-.06l-3.934.04-1.375 7.274c-.757 4-1.401 7.3-1.432 7.33-.031.032-.83.091-1.776.133l-1.719.076.085-.352c.046-.194.621-3.428 1.279-7.187.657-3.758 1.229-6.95 1.27-7.09.07-.232-.052-.258-1.197-.258h-1.274l.093-.772c.051-.424.129-1.015.172-1.312l.079-.54.908-.084c.5-.047 1.102-.1 1.337-.121.405-.035.445-.102.74-1.22.405-1.53.944-2.613 1.913-3.847.96-1.223 1.703-1.828 2.991-2.438.915-.433 1.127-.472 2.772-.517 1.542-.041 3.35.128 3.556.333.036.036-.024.714-.134 1.507-.229 1.652-.06 1.554-1.966 1.137-1.474-.323-2.315-.214-3.269.424-.854.57-1.53 1.646-2.033 3.232-.2.63-.363 1.21-.363 1.288 0 .089 1.476.128 3.928.103l3.929-.039.302-1.47.302-1.47 1.472-.247c2.19-.37 2.044-.413 1.937.578l-.189 1.764-.098.919h3.36l-.133 1.307-.134 1.307-1.866.104-1.866.104-.986 5.018c-.541 2.76-.984 5.303-.983 5.65.002.959.466 1.353 1.591 1.353.477 0 1.08-.073 1.339-.164.259-.09.513-.121.565-.07.051.052-.002.67-.118 1.376-.197 1.19-.243 1.297-.653 1.494-.599.288-2.783.354-3.532.107Zm11.531-.075c-1.539-.508-2.507-1.414-3.243-3.035-.495-1.092-.563-3.909-.137-5.7.62-2.612 1.984-5.022 3.818-6.75 1.866-1.758 4.11-2.565 6.775-2.437 1.853.09 2.953.554 3.986 1.683.994 1.087 1.36 2.09 1.442 3.968.117 2.646-.614 5.137-2.24 7.629-1.473 2.256-3.189 3.705-5.248 4.431-1.473.52-3.916.62-5.153.21Zm4.703-3.119c1.667-.832 3.207-3.065 3.793-5.5.343-1.425.346-3.743.006-4.736-.782-2.289-3.762-2.376-5.75-.168-.945 1.05-2.06 3.382-2.376 4.971-.5 2.505-.045 4.795 1.1 5.553.772.511 2.058.463 3.227-.12Zm41.181 3.102c-2.35-.75-3.443-2.408-3.592-5.443-.175-3.589 1.155-6.83 3.917-9.54 2.015-1.978 3.827-2.79 6.491-2.91 1.407-.064 4.141.223 4.377.46.092.091-.198 2.811-.321 3.01-.045.073-.563-.036-1.15-.242-.84-.296-1.366-.378-2.476-.388-1.343-.013-1.46.012-2.524.537-1.799.888-3.227 2.717-4.042 5.178-.33.996-.391 1.446-.401 2.94-.01 1.555.027 1.836.316 2.375.54 1.01 1.077 1.29 2.578 1.35 1.566.063 2.819-.27 4.653-1.239.677-.357 1.289-.65 1.361-.65.203 0 .162.404-.19 1.87l-.324 1.356-1.313.524c-2.764 1.105-5.497 1.406-7.36.812Zm-31.59-.359c0-.337 3.071-16.872 3.148-16.948.034-.035.834-.101 1.777-.148l1.713-.084-.085.353c-.182.76-.957 5.183-.915 5.225.025.024.431-.482.902-1.126 1.302-1.778 3.188-3.52 4.529-4.181 1.186-.586 2.489-.807 3.567-.605.744.14 1.621.97 1.907 1.808.437 1.283.3 2.479-1.069 9.294-1.478 7.358-1.08 6.58-3.374 6.604-1.342.015-1.363.01-1.289-.316.293-1.301 2.138-12.337 2.138-12.79 0-2.454-2.273-.948-6.035 4-1.011 1.328-1.954 2.592-2.097 2.808-.142.217-.513 1.655-.826 3.21-.312 1.55-.614 2.865-.671 2.922-.057.057-.827.128-1.712.158-1.41.049-1.608.026-1.608-.184Zm19.173-.105c.047-.192.754-4.05 1.572-8.574.818-4.524 1.508-8.246 1.534-8.271.026-.026.821-.089 1.768-.14l1.721-.091-.08.353c-.044.195-.748 4.057-1.566 8.584-.817 4.527-1.515 8.26-1.55 8.294-.035.036-.834.094-1.774.13l-1.71.065.085-.35Zm3.934-19.86c.009-.366.413-3.221.461-3.261.027-.023.794-.082 1.705-.132 1.504-.082 1.655-.067 1.656.163 0 .14-.077.924-.172 1.742l-.172 1.488-.88.092c-1.476.154-2.603.114-2.598-.092Z" fill="#fff"/><path d="M24.594 26.748c-.14-.363-1.384-1.067-2.579-1.458-2.194-.718-3.51-.885-7.028-.889-2.134-.003-3.23-.055-3.172-.151.049-.08.881-1.095 1.85-2.253l1.76-2.105 2.053 2.032 2.054 2.032-.079-.661c-.043-.364-.198-2.008-.344-3.653l-.266-2.992 1.983-1.854a253.49 253.49 0 0 0 3.307-3.15l1.324-1.296-.81.312-3.633 1.402c-1.554.6-2.912 1.087-3.017 1.084-.105-.003-.55-.466-.986-1.029-.437-.563-.815-1.023-.84-1.023-.026 0-.455.364-.954.809-.499.444-.973.808-1.054.808-.08 0-1.769-.896-3.752-1.99C8.43 9.626 6.779 8.76 6.742 8.795c-.035.035.942 1.443 2.171 3.13 1.23 1.685 2.452 3.363 2.717 3.727l.481.661-1.273 4.243-1.273 4.242-1.104.322c-1.298.38-2.271.852-2.83 1.374l-.401.376-1.022-1.052c-1.793-1.85-3.184-4.29-3.867-6.787C.043 17.942 0 17.448 0 15.138s.043-2.804.341-3.895c1.21-4.425 4.257-8.03 8.442-9.989C11 .217 12.116 0 15.23 0c2.398 0 2.86.04 3.882.336C24.2 1.807 28.04 5.385 29.67 10.17c.484 1.422.862 3.598.862 4.967 0 2.258-.768 5.278-1.841 7.245-.698 1.278-1.918 2.873-2.928 3.827-.855.807-1.034.89-1.169.538Zm.311-16.904c.747-.859.1-2.275-1.04-2.275-.642 0-1.425.674-1.425 1.228 0 1.362 1.6 2.041 2.465 1.047ZM9.151 8.31c.964-.587.895-2.017-.13-2.656-.622-.39-1.34-.298-1.905.244-1.417 1.356.343 3.442 2.035 2.412Zm11.788-.802c1.142-.593 1.545-1.903.886-2.88-.94-1.392-2.863-1.264-3.576.237-.777 1.634 1.095 3.473 2.69 2.643Zm-5.568-1.02c1.635-1.082 1.533-3.465-.195-4.517-.556-.339-1.836-.378-2.418-.075-.452.237-1.092.889-1.336 1.363-.209.407-.213 1.517-.008 2.058.571 1.505 2.56 2.094 3.957 1.17Z" fill="#999"/><path fill-rule="evenodd" clip-rule="evenodd" d="M22.015 25.29c1.195.391 2.44 1.095 2.58 1.458.134.351.314.27 1.168-.538 1.01-.954 2.23-2.549 2.928-3.827 1.073-1.966 1.84-4.987 1.84-7.245 0-1.369-.377-3.545-.861-4.967-1.632-4.786-5.472-8.364-10.558-9.835C18.09.04 17.628 0 15.23 0 12.116 0 11 .217 8.783 1.254 4.598 3.212 1.551 6.818.341 11.244.043 12.333 0 12.827 0 15.137s.043 2.804.341 3.894c.683 2.496 2.074 4.937 3.867 6.787L5.23 26.87l.401-.376c.559-.522 1.532-.995 2.83-1.374l1.104-.322 1.273-4.242 1.274-4.243-.482-.661-2.717-3.728c-1.23-1.686-2.206-3.094-2.17-3.13.035-.035 1.686.832 3.668 1.927 1.983 1.095 3.671 1.99 3.752 1.99.08 0 .555-.363 1.054-.807.499-.445.928-.809.953-.809.026 0 .404.46.84 1.023.438.563.881 1.026.987 1.029.105.003 1.463-.485 3.017-1.084l3.634-1.402.809-.312-1.324 1.296a253.49 253.49 0 0 1-3.307 3.15l-1.983 1.854.266 2.992c.146 1.645.3 3.289.344 3.653l.079.661-2.054-2.032-2.054-2.032-1.76 2.105c-.968 1.159-1.8 2.172-1.849 2.253-.058.096 1.038.148 3.172.151 3.518.004 4.834.17 7.028.89ZM15.371 6.488c1.635-1.08 1.533-3.464-.195-4.516-.556-.339-1.836-.378-2.418-.075-.452.237-1.092.889-1.336 1.363-.209.407-.213 1.517-.008 2.058.571 1.505 2.56 2.094 3.957 1.17Zm-6.35-.833c1.025.639 1.094 2.069.13 2.656-1.692 1.03-3.452-1.056-2.035-2.412.566-.542 1.283-.634 1.906-.244ZM20.94 7.509c1.142-.593 1.545-1.903.886-2.88-.94-1.392-2.863-1.264-3.576.237-.777 1.634 1.095 3.473 2.69 2.643Zm2.926.06c1.14 0 1.787 1.416 1.04 2.275-.865.994-2.465.315-2.465-1.047 0-.554.783-1.228 1.425-1.228Z" fill="#999"/></svg>