<svg width="1316" height="374" viewBox="0 0 1316 374" fill="none" xmlns="http://www.w3.org/2000/svg">
<path d="M972.5 84H1254C1261.96 84 1269.59 87.1607 1275.21 92.7868C1280.84 98.4129 1284 106.043 1284 114C1284 121.957 1280.84 129.587 1275.21 135.213C1269.59 140.839 1261.96 144 1254 144H32C24.0435 144 16.413 147.161 10.7869 152.787C5.16078 158.413 2 166.043 2 174C2 181.956 5.16078 189.587 10.7869 195.213C16.413 200.839 24.0435 204 32 204H286.5" stroke="#7026F4" stroke-width="4"/>
<path d="M1033.5 204H1254C1261.96 204 1269.59 207.161 1275.21 212.787C1280.84 218.413 1284 226.044 1284 234C1284 241.956 1280.84 249.587 1275.21 255.213C1269.59 260.839 1261.96 264 1254 264H32C24.0435 264 16.413 267.161 10.7869 272.787C5.16078 278.413 2 286.043 2 294C2 301.956 5.16078 309.587 10.7869 315.213C16.413 320.839 24.0435 324 32 324H247" stroke="#F4D05D" stroke-width="4"/>
<path d="M1066 320H1284C1291.96 320 1299.59 316.839 1305.21 311.213C1310.84 305.587 1314 297.956 1314 290V42C1314 34.0435 1310.84 26.4129 1305.21 20.7868C1299.59 15.1607 1291.96 12 1284 12H32C24.0435 12 16.4129 15.1607 10.7868 20.7868C5.16071 26.4129 2 34.0435 2 42C2 49.9565 5.16071 57.5871 10.7868 63.2132C16.4129 68.8393 24.0435 72 32 72H350" stroke="#3CFF64" stroke-width="4"/>
<path d="M326 48L350.06 72L326 96" stroke="#3CFF64" stroke-width="4"/>
</svg>
