<svg width="150" height="51" fill="none" xmlns="http://www.w3.org/2000/svg"><path d="M31.648 39.42 37.92 0h5.056l-6.273 39.42h-5.056Zm30.899-.75c-1.217 7.678-5.618 11.704-12.64 11.704-4.308 0-7.678-1.591-9.926-4.307l2.81-3.464c1.966 2.34 4.306 3.37 7.115 3.37 4.214 0 6.836-2.434 7.678-7.303l.281-1.966h-.093c-2.248 2.154-4.963 3.277-7.866 3.277-5.43 0-8.052-2.715-8.052-7.959 0-1.03.094-2.06.28-3.183l2.529-16.199h4.963L47.097 28.84c-.187.843-.187 1.592-.187 2.247 0 2.996 1.311 4.4 4.214 4.4 3.09 0 5.805-1.872 7.584-5.149l2.809-17.79h5.056L62.547 38.67Zm56.929-21.16 1.03-4.963h-4.963l-4.213 26.966h5.056l2.247-14.42c1.03-5.336 4.869-7.958 8.989-7.958h1.311l.749-4.776c-4.776-.655-8.334 1.78-10.206 5.15Zm-19.101-4.776-8.334 18.633-2.996-18.633h-4.869l-8.52 18.633-2.81-18.633h-5.15l4.308 26.873h5.337l8.333-18.633 2.903 18.633h5.15l11.985-26.873h-5.337Zm1.779 26.873 4.213-26.873h5.056l-4.213 26.873h-5.056Zm10.58-32.304a2.917 2.917 0 0 1-2.903 2.903 2.917 2.917 0 0 1-2.902-2.903 2.917 2.917 0 0 1 2.902-2.902c1.686 0 2.903 1.31 2.903 2.902ZM18.82 20.131l.468-2.902H1.311l.749-4.682h17.978l.374-2.247C21.442 3.745 25.749 0 32.397 0h3.652l-.75 4.588h-3.37c-3.652 0-5.712 1.779-6.367 5.899l-.281 2.06h6.929l-.75 4.681h-6.928l-3.84 22.66c-1.03 6.554-5.43 10.3-12.078 10.206H8.24l.749-4.963h.28c3.746 0 5.712-1.592 6.368-5.618l2.434-14.7H0l.75-4.682h18.07Zm117.603 15.45c7.023-.094 7.21-5.057 7.21-5.057h4.682s-1.03 9.364-11.985 9.364c-3.371 0-6.18-1.124-7.772-3.184-1.779-2.247-2.341-4.962-1.873-8.333l.375-2.435c1.03-6.273 2.434-14.138 13.389-14.138 2.997 0 5.525.842 7.21 2.528 1.498 1.404 2.341 3.464 2.341 5.43 0 2.903-1.217 5.15-3.558 6.555-2.435 1.498-5.431 1.779-7.678 1.779h-7.397c-.468 2.622-.187 4.588.843 5.711.936 1.311 2.341 1.873 4.213 1.78Zm-4.213-12.36-.188.843h6.836c4.307 0 6.273-1.311 6.273-4.12 0-2.341-1.966-3.745-5.056-3.745-4.307 0-7.023 2.528-7.865 7.022Z" fill="#fff"/></svg>