<svg width="150" height="29" fill="none" xmlns="http://www.w3.org/2000/svg"><path d="M143.927 15.322c-1.133 0-2.003-.698-2.003-2.132 0-1.59 1.064-2.566 2.653-2.566.349 0 .719.064.934.107v4.15a3.38 3.38 0 0 1-1.584.44Zm-2.824-6.024c.805 0 1.455-.65 1.455-1.477 0-.805-.655-1.455-1.455-1.455-.827 0-1.477.655-1.477 1.455 0 .827.65 1.477 1.477 1.477Zm7.023-.913c0-2.089-1.197-3.329-3.63-3.329-1.347 0-2.368.413-2.894.87.285-.065.827-.108 1.241-.108 1.911 0 2.674 1.085 2.674 2.916v1.39c-4.785.328-6.261 2.024-6.261 3.807s1.39 2.738 2.894 2.738c1.412 0 2.674-.848 3.372-1.568.129.978.762 1.52 1.697 1.52.934 0 2.411-.585 2.781-.87v-.086c-1.154-.129-1.869-.306-1.869-2.024V8.385h-.005Zm-11.045.413c0-2.738-1.412-3.737-3.087-3.737-1.59 0-3.329 1.176-3.979 1.826-.435-1.133-1.326-1.826-2.781-1.826-1.547 0-3.088 1.063-3.737 1.718V5.061h-.086c-1.133.37-2.674.784-4.172.913v.086c1.39.478 1.653.848 1.653 2.76v4.805c0 1.697-.22 2.217-1.412 2.695v.086h5.456v-.086c-1.176-.478-1.413-.998-1.413-2.695v-6.61c.586-.284 1.37-.563 2.154-.563 1.197 0 2.045.698 2.045 2.282v4.848c0 1.718-.22 2.26-1.412 2.738v.086h5.455v-.086c-1.197-.478-1.433-1.02-1.433-2.738V8.798a5.84 5.84 0 0 0-.242-1.718c.564-.306 1.498-.628 2.261-.628 1.219 0 2.11.698 2.11 2.282v4.848c0 1.718-.22 2.26-1.412 2.738v.086h5.455v-.086c-1.197-.478-1.412-1.02-1.412-2.738V8.798h-.011ZM117.016 8.1c.848 0 1.519-.65 1.519-1.52a1.51 1.51 0 0 0-1.519-1.519c-.87 0-1.498.677-1.498 1.52-.006.87.628 1.52 1.498 1.52Zm-.72 8.306v-.086c-1.476-.478-1.74-.998-1.74-2.738V5.056h-.085c-1.155.392-2.696.87-4.194.977v.086c1.434.5 1.654.913 1.654 2.824v4.628c0 1.74-.22 2.26-1.412 2.739v.085h5.777v.011Zm-12.285-1.084c-1.133 0-2.003-.698-2.003-2.132 0-1.59 1.063-2.566 2.653-2.566.349 0 .719.064.934.107v4.15a3.38 3.38 0 0 1-1.584.44Zm-2.824-6.024c.805 0 1.455-.65 1.455-1.477 0-.805-.655-1.455-1.455-1.455-.827 0-1.477.655-1.477 1.455 0 .827.65 1.477 1.477 1.477Zm7.023-.913c0-2.089-1.198-3.329-3.63-3.329-1.348 0-2.368.413-2.894.87.285-.065.827-.108 1.24-.108 1.912 0 2.674 1.085 2.674 2.916v1.39c-4.784.328-6.26 2.024-6.26 3.807s1.39 2.738 2.894 2.738c1.412 0 2.674-.848 3.372-1.568.129.978.762 1.52 1.696 1.52.935 0 2.411-.585 2.782-.87v-.086c-1.155-.129-1.869-.306-1.869-2.024V8.385h-.005Zm-13.391 8.021v-.086c-1.719-.499-2.11-1.09-2.11-2.915v-4.22h2.63c1.412 0 1.933.392 2.696 1.568h.107v-3.85h-.107c-.763 1.197-1.262 1.61-2.696 1.61h-2.63V2.083h2.893c1.697 0 2.046.628 3.351 2.824h.107V1.405H88.214v.086c1.455.5 1.74 1.111 1.74 2.867v9.041c0 1.826-.285 2.411-1.74 2.916v.086h6.605v.005Zm-13.397-.284c-2.132 0-2.846-2.674-2.846-5.284 0-2.893.934-5.24 2.846-5.24 1.89 0 2.824 2.347 2.824 5.24.005 2.61-.714 5.284-2.824 5.284Zm0 .547c3.173 0 5.718-2.545 5.718-5.825 0-3.415-2.652-5.783-5.718-5.783-3.088 0-5.719 2.368-5.719 5.783 0 3.28 2.524 5.825 5.719 5.825Zm-7.78-7.87c0-2.739-1.413-3.738-3.088-3.738-1.59 0-3.324 1.176-3.979 1.826-.434-1.133-1.326-1.826-2.781-1.826-1.541 0-3.087 1.063-3.737 1.718V5.061h-.086c-1.133.37-2.674.784-4.172.913v.086c1.39.478 1.654.848 1.654 2.76v4.805c0 1.697-.22 2.217-1.412 2.695v.086h5.455v-.086c-1.176-.478-1.412-.998-1.412-2.695v-6.61c.585-.284 1.369-.563 2.153-.563 1.197 0 2.046.698 2.046 2.282v4.848c0 1.718-.22 2.26-1.413 2.738v.086h5.456v-.086c-1.198-.478-1.434-1.02-1.434-2.738V8.798a5.85 5.85 0 0 0-.241-1.718c.563-.306 1.498-.628 2.26-.628 1.219 0 2.11.698 2.11 2.282v4.848c0 1.718-.22 2.26-1.412 2.738v.086h5.455v-.086c-1.197-.478-1.412-1.02-1.412-2.738V8.798h-.01Zm-24.157 7.323c-2.132 0-2.846-2.674-2.846-5.284 0-2.893.934-5.24 2.845-5.24 1.89 0 2.825 2.347 2.825 5.24.005 2.61-.714 5.284-2.825 5.284Zm0 .547c3.173 0 5.718-2.545 5.718-5.825 0-3.415-2.653-5.783-5.719-5.783-3.087 0-5.718 2.368-5.718 5.783 0 3.28 2.524 5.825 5.718 5.825ZM42.353 8.1c.848 0 1.52-.65 1.52-1.52 0-.848-.677-1.519-1.52-1.519-.87 0-1.498.677-1.498 1.52 0 .87.628 1.52 1.498 1.52Zm-.72 8.306v-.086c-1.476-.478-1.74-.998-1.74-2.738V5.056h-.085c-1.155.392-2.696.87-4.194.977v.086c1.434.5 1.654.913 1.654 2.824v4.628c0 1.74-.22 2.26-1.412 2.739v.085h5.777v.011ZM27.137 2.082h1.954c2.197 0 3.066 1.61 3.066 3.393 0 1.954-.998 3.715-3.307 3.715h-1.718V2.082h.005Zm2.105 14.324v-.086c-1.718-.499-2.11-1.09-2.11-2.915V9.86h2.26c3.216 0 5.568-1.304 5.568-4.392 0-2.673-1.654-4.064-5.326-4.064h-6.997v.086c1.456.5 1.74 1.042 1.74 2.867v9.041c0 1.826-.284 2.411-1.74 2.916v.086h6.605v.005Z" fill="#fff"/><path d="M82.77 25.007c-.06-1.884-3.002-1.299-3.002-2.351 0-.35.3-.585.88-.585.586 0 .94.311.978.767h1.08c-.06-1.041-.833-1.675-2.02-1.675-1.23 0-2.008.671-2.008 1.509 0 1.911 3.034 1.326 3.034 2.351 0 .36-.333.623-.956.623-.596 0-1.004-.349-1.042-.778h-1.116c.048.945.928 1.686 2.18 1.686 1.224-.006 1.992-.666 1.992-1.547Zm-5.654-4.456c.38 0 .681-.3.681-.692 0-.392-.3-.693-.681-.693-.387 0-.693.3-.693.692 0 .392.3.693.693.693Zm-.553 5.911h1.079v-5.218h-1.08v5.218Zm-2.368-2.743c0-1.111.494-1.44 1.288-1.44h.274v-1.116c-.74 0-1.262.322-1.562.843v-.757h-1.08v5.219h1.08v-2.75Zm-3.447 0c0-1.111.493-1.44 1.288-1.44h.274v-1.116c-.741 0-1.262.322-1.563.843v-.757h-1.079v5.219h1.08v-2.75Zm-6.186.129c0-1.187.73-1.75 1.546-1.75.806 0 1.573.569 1.573 1.75 0 1.18-.794 1.76-1.6 1.76-.821.006-1.52-.574-1.52-1.76Zm4.226 0c0-1.638-1.176-2.69-2.664-2.69-1.487 0-2.663 1.052-2.663 2.69 0 1.637 1.128 2.7 2.615 2.7 1.498 0 2.712-1.057 2.712-2.7Zm-13.145 2.614h1.08v-4.51l2.019 4.51h.746l2.008-4.51v4.51h1.08V19.88H61.42l-2.304 5.165-2.314-5.165h-1.165v6.582h.005Zm-5.852-2.614c0 1.637 1.063 2.7 2.556 2.7 1.277 0 2.115-.708 2.405-1.734h-1.165c-.199.542-.596.822-1.24.822-.87 0-1.45-.645-1.45-1.788 0-1.139.58-1.783 1.45-1.783.644 0 1.063.322 1.24.827h1.165c-.295-1.1-1.128-1.734-2.406-1.734-1.498 0-2.555 1.063-2.555 2.69Zm-4.747 0c0-1.187.73-1.75 1.547-1.75.805 0 1.573.569 1.573 1.75 0 1.18-.795 1.76-1.6 1.76-.822.006-1.52-.574-1.52-1.76Zm4.226 0c0-1.638-1.176-2.69-2.663-2.69-1.488 0-2.664 1.052-2.664 2.69 0 1.637 1.128 2.7 2.615 2.7 1.498 0 2.712-1.057 2.712-2.7Zm-10.422 1.734V20.76h1.068c1.552 0 2.39.93 2.39 2.438 0 1.498-.833 2.39-2.39 2.39h-1.068v-.006Zm1.068-5.702h-2.153v6.582h2.153c2.116 0 3.496-1.24 3.496-3.27 0-2.034-1.386-3.312-3.496-3.312Zm-7.694 5.342-1.471-3.978h-1.203l2.056 5.133-1.057 2.545h1.116l3.2-7.673h-1.116l-1.525 3.973Zm-3.04-.526c0-.784-.568-1.487-1.266-1.61.633-.226 1.116-.71 1.116-1.51 0-.928-.74-1.696-2.131-1.696h-2.513v6.582h2.636c1.343 0 2.159-.762 2.159-1.766Zm-1.25-2.985c0 .607-.424.94-1.128.94h-1.337v-1.885h1.337c.698-.005 1.128.344 1.128.945Zm.166 2.867c0 .634-.445 1.004-1.176 1.004h-1.46v-2.056h1.423c.725 0 1.213.402 1.213 1.052Z" fill="#666"/><path d="M16.704 1.25c-.118-.092-.241-.172-.386-.27a3.777 3.777 0 0 0-.194-.117 4.774 4.774 0 0 0-.402-.215l-.135-.064c-1.793-.833-4.096-.79-5.88.273C7.92-.206 5.644-.265 3.803.594l-.108.054c-.14.07-.274.14-.403.215-.07.037-.134.08-.198.123-.145.097-.269.177-.387.269C1.01 2.533 0 4.729 0 7.139c.032 5.455 6.347 10.438 9.622 10.953l.086.016.086-.016c3.275-.52 9.59-5.503 9.622-10.958-.006-2.405-1.015-4.601-2.712-5.885Z" fill="#333"/><path d="M10.036 17.426c.112-.048.225-.102.338-.15l.123-.06c.065-.031.124-.058.183-.09.064-.033.129-.07.193-.102a.804.804 0 0 0 .091-.054 9.22 9.22 0 0 0 2.852-2.518 8.734 8.734 0 0 0 1.67-4.177c.166-1.471-.038-3.034-.725-4.355-.489-.945-1.251-1.782-2.196-2.276a4.722 4.722 0 0 0-1.719-.51C9.751 3.01 8.65 3.3 7.834 4.164a3.29 3.29 0 0 0-.778 1.488l-.006.021-.01.06-.011.059-.011.059-.01.059-.011.059a.47.47 0 0 0-.011.086l-.016.155c-.006.054-.006.108-.011.161v.06a2.725 2.725 0 0 1 5.45.118c0 .408-.091.789-.247 1.138l-.022.059c-.542 1.487-1.857 2.942-3.457 3.56a4.755 4.755 0 0 1-2.003.311c-.049 0-.092-.005-.14-.01-.08-.006-.156-.017-.236-.022a17.017 17.017 0 0 1-.381-.059c-.038-.006-.08-.016-.118-.022a6.939 6.939 0 0 1-.323-.075l-.043-.01c-1.498-.409-2.91-1.375-3.898-2.594-.021-.027-.043-.054-.064-.075-.032-.043-.065-.08-.097-.124-.032-.037-.059-.08-.091-.118-.022-.032-.048-.064-.07-.096-.027-.038-.054-.08-.08-.119-.027-.042-.06-.085-.086-.134l-.054-.086A3.734 3.734 0 0 0 .88 7.88l-.027-.043-.005-.005L.8 7.74a2.775 2.775 0 0 1-.091-.177c-.022-.048-.048-.096-.07-.14l-.016-.032c-.027-.064-.054-.134-.08-.198l-.006-.01c.038 5.1 5.976 9.894 9.16 10.399.102-.038.204-.075.301-.118l.038-.038Z" fill="#666"/><path d="m.634 7.365.016.032c.021.048.048.097.07.14.032.059.059.118.09.177l.05.091.005.005.026.043c.038.065.076.135.119.199.016.027.037.054.053.086.027.043.054.086.086.134.027.038.054.08.08.118.022.032.05.065.07.097.027.043.06.08.086.123.033.043.065.08.097.124.022.027.038.054.06.075.987 1.219 2.4 2.18 3.897 2.593l.043.011c.108.027.215.054.323.075.037.01.08.016.118.022.07.016.14.027.204.032.059.01.118.016.177.027.08.01.156.016.236.026.048.006.091.006.14.011.102.006.21.011.311.011a4.879 4.879 0 0 0 1.692-.322c1.605-.618 2.92-2.073 3.457-3.56l.022-.059a2.725 2.725 0 0 1-4.832.236l-.033-.059a2.723 2.723 0 0 1-.338-1.315v-.252c0-.054.005-.119.01-.172 0-.054.006-.102.011-.156a5.62 5.62 0 0 1 .247-1.149c.178-.558.44-1.085.768-1.568a6.691 6.691 0 0 1 1.713-1.734A5.54 5.54 0 0 0 6.572.541c-.929 0-1.772.193-2.518.537l-.021.01-.097.049c-.124.059-.247.128-.365.198-.06.032-.118.07-.177.108l-.016.01-.006.006a5.7 5.7 0 0 0-1.659 1.627c-.199.29-.37.6-.52.928-.108.231-.2.473-.28.715l-.005.01-.011.027-.01.032-.006.011-.032.107-.017.065a4.28 4.28 0 0 0-.096.376c-.016.059-.027.118-.038.182l-.01.054-.033.166-.005.022-.01.048a8.249 8.249 0 0 0-.103 1.273v.048l.005.016c.033.07.06.134.092.199Z" fill="#999"/></svg>