<svg viewBox="0 0 24 24" fill="none" xmlns="http://www.w3.org/2000/svg">
<path d="M17.4358 12.6239L10.3165 19.7431C10.1453 19.9144 9.93731 20 9.69266 20C9.44801 20 9.24006 19.9144 9.06881 19.7431L8.26147 18.9358C8.09021 18.7645 8.00459 18.5566 8.00459 18.3119C7.98012 18.0673 8.05352 17.8593 8.22477 17.6881L13.9128 12L8.22477 6.31193C8.05352 6.14067 7.98012 5.93272 8.00459 5.68807C8.00459 5.44342 8.09021 5.23547 8.26147 5.06422L9.06881 4.25688C9.24006 4.08563 9.44801 4 9.69266 4C9.93731 4 10.1453 4.08563 10.3165 4.25688L17.4358 11.3761C17.6315 11.5474 17.7294 11.7554 17.7294 12C17.7294 12.2446 17.6315 12.4526 17.4358 12.6239Z" fill="currentColor"/>
</svg>
