<svg viewBox="0 0 24 24" fill="none" xmlns="http://www.w3.org/2000/svg">
<path d="M8.69355 17.6855C8.69355 17.793 8.6129 17.8602 8.45161 17.8871C8.3172 17.8871 8.25 17.8333 8.25 17.7258C8.25 17.6183 8.3172 17.5645 8.45161 17.5645C8.53226 17.5645 8.58602 17.578 8.6129 17.6048C8.66667 17.6317 8.69355 17.6586 8.69355 17.6855ZM7.44355 17.5242C7.41667 17.5511 7.41667 17.5914 7.44355 17.6452C7.49731 17.672 7.55108 17.6989 7.60484 17.7258C7.6586 17.7527 7.71237 17.7527 7.76613 17.7258C7.81989 17.6989 7.84677 17.6586 7.84677 17.6048C7.87366 17.5242 7.81989 17.4704 7.68548 17.4436C7.55108 17.3898 7.47043 17.4167 7.44355 17.5242ZM9.21774 17.4436C9.08333 17.4704 9.01613 17.5242 9.01613 17.6048C9.04301 17.6855 9.06989 17.7393 9.09677 17.7661C9.15054 17.7661 9.2043 17.7661 9.25806 17.7661C9.39247 17.7124 9.44624 17.6452 9.41935 17.5645C9.41935 17.4839 9.35215 17.4436 9.21774 17.4436ZM11.879 2C10.0242 2 8.34409 2.43011 6.83871 3.29032C5.33333 4.15054 4.15054 5.33333 3.29032 6.83871C2.43011 8.34409 2 10.0108 2 11.8387C2 14.0699 2.63172 16.0726 3.89516 17.8468C5.1586 19.5941 6.81183 20.8038 8.85484 21.4758C9.06989 21.5296 9.23118 21.5027 9.33871 21.3952C9.47312 21.2876 9.54032 21.1532 9.54032 20.9919L9.5 18.5323L9.05645 18.5726C8.70699 18.6263 8.37097 18.6398 8.04839 18.6129C7.5914 18.5591 7.20161 18.4382 6.87903 18.25C6.50269 18.0349 6.24731 17.7258 6.1129 17.3226L5.95161 17C5.84409 16.7581 5.70968 16.543 5.54839 16.3548C5.36022 16.1129 5.17204 15.9382 4.98387 15.8306L4.78226 15.6694C4.64785 15.5618 4.58065 15.4677 4.58065 15.3871C4.60753 15.2796 4.76882 15.2258 5.06452 15.2258L5.34677 15.2661C5.56183 15.3468 5.76344 15.4409 5.95161 15.5484C6.22043 15.7366 6.43548 15.9785 6.59677 16.2742C6.97312 16.9462 7.51075 17.3091 8.20968 17.3629C8.63978 17.4167 9.08333 17.336 9.54032 17.121C9.62097 16.5296 9.83602 16.0726 10.1855 15.75C9.21774 15.6425 8.49194 15.5081 8.00806 15.3468C7.25538 15.078 6.69086 14.6613 6.31452 14.0968C5.88441 13.4247 5.66935 12.4839 5.66935 11.2742C5.66935 10.7634 5.73656 10.3468 5.87097 10.0242C6.03226 9.67473 6.27419 9.29839 6.59677 8.89516C6.48925 8.65323 6.43548 8.34409 6.43548 7.96774C6.38172 7.37635 6.47581 6.78495 6.71774 6.19355C6.95968 6.1129 7.32258 6.16667 7.80645 6.35484C8.15591 6.48925 8.5457 6.67742 8.97581 6.91936L9.5 7.28226C10.3065 7.04032 11.1398 6.91936 12 6.91936C12.8871 6.91936 13.7473 7.04032 14.5806 7.28226L15.1048 6.91936C15.5349 6.67742 15.9113 6.48925 16.2339 6.35484C16.7177 6.16667 17.0941 6.1129 17.3629 6.19355C17.578 6.78495 17.672 7.37635 17.6452 7.96774C17.6183 8.34409 17.5511 8.66667 17.4435 8.93548C17.8199 9.33871 18.0753 9.67473 18.2097 9.94355C18.3979 10.3199 18.4919 10.7634 18.4919 11.2742C18.4919 12.4839 18.2634 13.4382 17.8065 14.1371C17.4032 14.6747 16.8253 15.078 16.0726 15.3468C15.5887 15.5081 14.8495 15.6425 13.8548 15.75C14.3118 16.1263 14.5403 16.7446 14.5403 17.6048V20.9919C14.5403 21.1532 14.5941 21.2876 14.7016 21.3952C14.836 21.5027 15.0108 21.5296 15.2258 21.4758C17.2419 20.8038 18.8683 19.5941 20.1048 17.8468C21.3683 16.0726 22 14.0699 22 11.8387C22 10.0108 21.543 8.33065 20.629 6.79839C19.7419 5.31989 18.5188 4.15054 16.9597 3.29032C15.4005 2.43011 13.707 2 11.879 2ZM5.91129 15.9113C5.85753 15.9651 5.87097 16.0323 5.95161 16.1129C6.03226 16.1936 6.09946 16.207 6.15323 16.1532C6.20699 16.0995 6.19355 16.0323 6.1129 15.9516C6.03226 15.871 5.96505 15.8575 5.91129 15.9113ZM5.46774 15.5887C5.44086 15.6425 5.46774 15.6962 5.54839 15.75C5.65591 15.8038 5.72312 15.8038 5.75 15.75C5.77688 15.6694 5.75 15.6156 5.66935 15.5887C5.58871 15.5349 5.52151 15.5349 5.46774 15.5887ZM6.79839 17C6.77151 17.0269 6.75806 17.0672 6.75806 17.121C6.75806 17.1747 6.78495 17.2285 6.83871 17.2823C6.94624 17.3898 7.04032 17.4032 7.12097 17.3226C7.14785 17.2957 7.14785 17.2554 7.12097 17.2016C7.12097 17.1479 7.09409 17.1075 7.04032 17.0806C7.01344 17.0269 6.97312 17 6.91935 17C6.86559 16.9731 6.82527 16.9731 6.79839 17ZM6.31452 16.4355C6.26075 16.4624 6.26075 16.543 6.31452 16.6774C6.36828 16.7043 6.4086 16.7312 6.43548 16.7581C6.48925 16.7849 6.52957 16.7849 6.55645 16.7581C6.6371 16.7043 6.6371 16.6237 6.55645 16.5161C6.52957 16.4624 6.48925 16.4355 6.43548 16.4355C6.4086 16.4086 6.36828 16.4086 6.31452 16.4355Z" fill="currentColor"/>
</svg>
