<svg viewBox="0 0 24 24" fill="none" xmlns="http://www.w3.org/2000/svg">
<path d="M13.4883 12.082L18.0586 7.51172C18.1289 7.41797 18.1641 7.3125 18.1641 7.19531C18.1641 7.07812 18.1289 6.98438 18.0586 6.91406L17.25 6.10547C17.1797 6.03516 17.0859 6 16.9688 6C16.8516 6 16.7461 6.03516 16.6523 6.10547L12.082 10.6758L7.51172 6.10547C7.41797 6.03516 7.3125 6 7.19531 6C7.07812 6 6.98438 6.03516 6.91406 6.10547L6.10547 6.91406C6.03516 6.98438 6 7.07812 6 7.19531C6 7.3125 6.03516 7.41797 6.10547 7.51172L10.6758 12.082L6.10547 16.6523C6.03516 16.7461 6 16.8516 6 16.9688C6 17.0859 6.03516 17.1797 6.10547 17.25L6.91406 18.0586C6.98438 18.1289 7.07812 18.1641 7.19531 18.1641C7.3125 18.1641 7.41797 18.1289 7.51172 18.0586L12.082 13.4883L16.6523 18.0586C16.7461 18.1289 16.8516 18.1641 16.9688 18.1641C17.0859 18.1641 17.1797 18.1289 17.25 18.0586L18.0586 17.25C18.1289 17.1797 18.1641 17.0859 18.1641 16.9688C18.1641 16.8516 18.1289 16.7461 18.0586 16.6523L13.4883 12.082Z" fill="currentColor"/>
</svg>
